<svg width="19" height="18" viewBox="0 0 19 18" fill="none" xmlns="http://www.w3.org/2000/svg">
<g clip-path="url(#clip0_1119_4023)">
<rect x="0.25" width="18" height="18" rx="9" fill="#E7F5F1"/>
<rect x="0.8125" y="0.5625" width="16.875" height="16.875" rx="8.4375" stroke="#0D8A6A" stroke-width="1.125"/>
<path fill-rule="evenodd" clip-rule="evenodd" d="M13.0725 5.5425L7.7025 10.725L6.2775 9.2025C6.015 8.955 5.6025 8.94 5.3025 9.15C5.01 9.3675 4.9275 9.75 5.1075 10.0575L6.795 12.8025C6.96 13.0575 7.245 13.215 7.5675 13.215C7.875 13.215 8.1675 13.0575 8.3325 12.8025C8.6025 12.45 13.755 6.3075 13.755 6.3075C14.43 5.6175 13.6125 5.01 13.0725 5.535V5.5425Z" fill="#0D8A6A"/>
</g>
<defs>
<clipPath id="clip0_1119_4023">
<rect x="0.25" width="18" height="18" rx="9" fill="white"/>
</clipPath>
</defs>
</svg>
