<svg width="360" height="70" viewBox="0 0 360 70" fill="none" xmlns="http://www.w3.org/2000/svg">
<rect x="0.5" y="0.5" width="359" height="69" rx="7.5" fill="#FFFCF5"/>
<rect x="0.5" y="0.5" width="359" height="69" rx="7.5" stroke="#FEF0C7"/>
<g clip-path="url(#clip0_1_17944)">
<path d="M15 17.3334V15.0001M15 12.6667H15.0058M20.8333 15.0001C20.8333 18.2217 18.2217 20.8334 15 20.8334C11.7783 20.8334 9.16666 18.2217 9.16666 15.0001C9.16666 11.7784 11.7783 9.16675 15 9.16675C18.2217 9.16675 20.8333 11.7784 20.8333 15.0001Z" stroke="#B54708" stroke-linecap="round" stroke-linejoin="round"/>
</g>
<path d="M27.0568 21V12.2727H30.0057C30.6903 12.2727 31.25 12.3963 31.6847 12.6435C32.1222 12.8878 32.446 13.2188 32.6562 13.6364C32.8665 14.054 32.9716 14.5199 32.9716 15.0341C32.9716 15.5483 32.8665 16.0156 32.6562 16.4361C32.4489 16.8565 32.1278 17.1918 31.6932 17.4418C31.2585 17.6889 30.7017 17.8125 30.0227 17.8125H27.9091V16.875H29.9886C30.4574 16.875 30.8338 16.794 31.1179 16.6321C31.402 16.4702 31.608 16.2514 31.7358 15.9759C31.8665 15.6974 31.9318 15.3835 31.9318 15.0341C31.9318 14.6847 31.8665 14.3722 31.7358 14.0966C31.608 13.821 31.4006 13.6051 31.1136 13.4489C30.8267 13.2898 30.446 13.2102 29.9716 13.2102H28.1136V21H27.0568ZM35.5433 12.2727V21H34.5376V12.2727H35.5433ZM39.3114 21.1534C38.8967 21.1534 38.5202 21.0753 38.1822 20.919C37.8441 20.7599 37.5756 20.5312 37.3768 20.233C37.1779 19.9318 37.0785 19.5682 37.0785 19.142C37.0785 18.767 37.1523 18.4631 37.3001 18.2301C37.4478 17.9943 37.6452 17.8097 37.8924 17.6761C38.1396 17.5426 38.4123 17.4432 38.7106 17.3778C39.0117 17.3097 39.3143 17.2557 39.6183 17.2159C40.016 17.1648 40.3384 17.1264 40.5856 17.1009C40.8356 17.0724 41.0174 17.0256 41.131 16.9602C41.2475 16.8949 41.3058 16.7812 41.3058 16.6193V16.5852C41.3058 16.1648 41.1907 15.8381 40.9606 15.6051C40.7333 15.3722 40.3881 15.2557 39.9251 15.2557C39.445 15.2557 39.0685 15.3608 38.7958 15.571C38.5231 15.7812 38.3313 16.0057 38.2205 16.2443L37.266 15.9034C37.4364 15.5057 37.6637 15.196 37.9478 14.9744C38.2347 14.75 38.5472 14.5937 38.8853 14.5057C39.2262 14.4148 39.5614 14.3693 39.891 14.3693C40.1012 14.3693 40.3427 14.3949 40.6154 14.446C40.891 14.4943 41.1566 14.5952 41.4123 14.7486C41.6708 14.902 41.8853 15.1335 42.0558 15.4432C42.2262 15.7528 42.3114 16.1676 42.3114 16.6875V21H41.3058V20.1136H41.2546C41.1864 20.2557 41.0728 20.4077 40.9137 20.5696C40.7546 20.7315 40.543 20.8693 40.2788 20.983C40.0146 21.0966 39.6921 21.1534 39.3114 21.1534ZM39.4648 20.25C39.8626 20.25 40.1978 20.1719 40.4705 20.0156C40.7461 19.8594 40.9535 19.6577 41.0927 19.4105C41.2347 19.1634 41.3058 18.9034 41.3058 18.6307V17.7102C41.2631 17.7614 41.1694 17.8082 41.0245 17.8509C40.8825 17.8906 40.7177 17.9261 40.5302 17.9574C40.3455 17.9858 40.1651 18.0114 39.989 18.0341C39.8157 18.054 39.6751 18.071 39.5671 18.0852C39.3058 18.1193 39.0614 18.1747 38.8342 18.2514C38.6097 18.3253 38.4279 18.4375 38.2887 18.5881C38.1523 18.7358 38.0842 18.9375 38.0842 19.1932C38.0842 19.5426 38.2134 19.8068 38.4719 19.9858C38.7333 20.1619 39.0643 20.25 39.4648 20.25ZM46.8061 21.1364C46.1925 21.1364 45.6641 20.9915 45.2209 20.7017C44.7777 20.4119 44.4368 20.0128 44.1982 19.5043C43.9595 18.9957 43.8402 18.4148 43.8402 17.7614C43.8402 17.0966 43.9624 16.5099 44.2067 16.0014C44.4538 15.4901 44.7976 15.0909 45.2379 14.804C45.6811 14.5142 46.1982 14.3693 46.7891 14.3693C47.2493 14.3693 47.6641 14.4545 48.0334 14.625C48.4027 14.7955 48.7053 15.0341 48.9411 15.3409C49.1768 15.6477 49.3232 16.0057 49.38 16.4148H48.3743C48.2976 16.1165 48.1271 15.8523 47.8629 15.6222C47.6016 15.3892 47.2493 15.2727 46.8061 15.2727C46.4141 15.2727 46.0703 15.375 45.7749 15.5795C45.4822 15.7812 45.2536 16.0668 45.0888 16.4361C44.9268 16.8026 44.8459 17.233 44.8459 17.7273C44.8459 18.233 44.9254 18.6733 45.0845 19.0483C45.2464 19.4233 45.4737 19.7145 45.7663 19.9219C46.0618 20.1293 46.4084 20.233 46.8061 20.233C47.0675 20.233 47.3047 20.1875 47.5178 20.0966C47.7308 20.0057 47.9112 19.875 48.0589 19.7045C48.2067 19.5341 48.3118 19.3295 48.3743 19.0909H49.38C49.3232 19.4773 49.1825 19.8253 48.9581 20.1349C48.7365 20.4418 48.4425 20.6861 48.076 20.8679C47.7124 21.0469 47.2891 21.1364 46.8061 21.1364ZM53.5945 21.1364C52.9638 21.1364 52.4197 20.9972 51.9624 20.7188C51.5078 20.4375 51.157 20.0455 50.9098 19.5426C50.6655 19.0369 50.5433 18.4489 50.5433 17.7784C50.5433 17.108 50.6655 16.517 50.9098 16.0057C51.157 15.4915 51.5007 15.0909 51.9411 14.804C52.3842 14.5142 52.9013 14.3693 53.4922 14.3693C53.8331 14.3693 54.1697 14.4261 54.5021 14.5398C54.8345 14.6534 55.1371 14.8381 55.4098 15.0938C55.6825 15.3466 55.8999 15.6818 56.0618 16.0994C56.2237 16.517 56.3047 17.0312 56.3047 17.642V18.0682H51.2592V17.1989H55.282C55.282 16.8295 55.2081 16.5 55.0604 16.2102C54.9155 15.9205 54.7081 15.6918 54.4382 15.5241C54.1712 15.3565 53.8558 15.2727 53.4922 15.2727C53.0916 15.2727 52.745 15.3722 52.4524 15.571C52.1626 15.767 51.9396 16.0227 51.7834 16.3381C51.6271 16.6534 51.549 16.9915 51.549 17.3523V17.9318C51.549 18.4261 51.6342 18.8452 51.8047 19.1889C51.978 19.5298 52.218 19.7898 52.5249 19.9688C52.8317 20.1449 53.1882 20.233 53.5945 20.233C53.8587 20.233 54.0973 20.196 54.3104 20.1222C54.5263 20.0455 54.7124 19.9318 54.8686 19.7812C55.0249 19.6278 55.1456 19.4375 55.2308 19.2102L56.2024 19.483C56.1001 19.8125 55.9283 20.1023 55.6868 20.3523C55.4453 20.5994 55.147 20.7926 54.7919 20.9318C54.4368 21.0682 54.0376 21.1364 53.5945 21.1364ZM61.8572 23.4545C61.6868 23.4545 61.5348 23.4403 61.4013 23.4119C61.2678 23.3864 61.1754 23.3608 61.1243 23.3352L61.38 22.4489C61.6243 22.5114 61.8402 22.5341 62.0277 22.517C62.2152 22.5 62.3814 22.4162 62.5263 22.2656C62.674 22.1179 62.8089 21.8778 62.9311 21.5455L63.1186 21.0341L60.6982 14.4545H61.7891L63.5959 19.6705H63.6641L65.4709 14.4545H66.5618L63.7834 21.9545C63.6584 22.2926 63.5036 22.5724 63.3189 22.794C63.1342 23.0185 62.9197 23.1847 62.6754 23.2926C62.4339 23.4006 62.1612 23.4545 61.8572 23.4545ZM70.3139 21.1364C69.723 21.1364 69.2045 20.9957 68.7585 20.7145C68.3153 20.4332 67.9688 20.0398 67.7188 19.5341C67.4716 19.0284 67.348 18.4375 67.348 17.7614C67.348 17.0795 67.4716 16.4844 67.7188 15.9759C67.9688 15.4673 68.3153 15.0724 68.7585 14.7912C69.2045 14.5099 69.723 14.3693 70.3139 14.3693C70.9048 14.3693 71.4219 14.5099 71.8651 14.7912C72.3111 15.0724 72.6577 15.4673 72.9048 15.9759C73.1548 16.4844 73.2798 17.0795 73.2798 17.7614C73.2798 18.4375 73.1548 19.0284 72.9048 19.5341C72.6577 20.0398 72.3111 20.4332 71.8651 20.7145C71.4219 20.9957 70.9048 21.1364 70.3139 21.1364ZM70.3139 20.233C70.7628 20.233 71.1321 20.1179 71.4219 19.8878C71.7116 19.6577 71.9261 19.3551 72.0653 18.9801C72.2045 18.6051 72.2741 18.1989 72.2741 17.7614C72.2741 17.3239 72.2045 16.9162 72.0653 16.5384C71.9261 16.1605 71.7116 15.8551 71.4219 15.6222C71.1321 15.3892 70.7628 15.2727 70.3139 15.2727C69.8651 15.2727 69.4957 15.3892 69.206 15.6222C68.9162 15.8551 68.7017 16.1605 68.5625 16.5384C68.4233 16.9162 68.3537 17.3239 68.3537 17.7614C68.3537 18.1989 68.4233 18.6051 68.5625 18.9801C68.7017 19.3551 68.9162 19.6577 69.206 19.8878C69.4957 20.1179 69.8651 20.233 70.3139 20.233ZM78.94 18.3239V14.4545H79.9457V21H78.94V19.892H78.8718C78.7184 20.2244 78.4798 20.5071 78.1559 20.7401C77.832 20.9702 77.4229 21.0852 76.9286 21.0852C76.5195 21.0852 76.1559 20.9957 75.8377 20.8168C75.5195 20.6349 75.2695 20.3622 75.0877 19.9986C74.9059 19.6321 74.815 19.1705 74.815 18.6136V14.4545H75.8207V18.5455C75.8207 19.0227 75.9542 19.4034 76.2212 19.6875C76.4911 19.9716 76.8349 20.1136 77.2525 20.1136C77.5025 20.1136 77.7567 20.0497 78.0153 19.9219C78.2766 19.794 78.4954 19.598 78.6715 19.3338C78.8505 19.0696 78.94 18.733 78.94 18.3239ZM81.7876 21V14.4545H82.7592V15.4432H82.8274C82.9467 15.1193 83.1626 14.8565 83.4751 14.6548C83.7876 14.4531 84.1399 14.3523 84.532 14.3523C84.6058 14.3523 84.6982 14.3537 84.8089 14.3565C84.9197 14.3594 85.0036 14.3636 85.0604 14.3693V15.392C85.0263 15.3835 84.9482 15.3707 84.826 15.3537C84.7067 15.3338 84.5803 15.3239 84.4467 15.3239C84.1286 15.3239 83.8445 15.3906 83.5945 15.5241C83.3473 15.6548 83.1513 15.8366 83.0064 16.0696C82.8643 16.2997 82.7933 16.5625 82.7933 16.858V21H81.7876ZM92.5423 14.4545V15.3068H89.0138V14.4545H92.5423ZM90.0707 21V13.5511C90.0707 13.1761 90.1587 12.8636 90.3349 12.6136C90.511 12.3636 90.7397 12.1761 91.021 12.0511C91.3022 11.9261 91.5991 11.8636 91.9116 11.8636C92.1587 11.8636 92.3604 11.8835 92.5167 11.9233C92.6729 11.9631 92.7894 12 92.8661 12.0341L92.5763 12.9034C92.5252 12.8864 92.4542 12.8651 92.3633 12.8395C92.2752 12.8139 92.1587 12.8011 92.0138 12.8011C91.6815 12.8011 91.4414 12.8849 91.2937 13.0526C91.1488 13.2202 91.0763 13.4659 91.0763 13.7898V21H90.0707ZM93.9517 21V14.4545H94.9574V21H93.9517ZM94.4631 13.3636C94.267 13.3636 94.098 13.2969 93.956 13.1634C93.8168 13.0298 93.7472 12.8693 93.7472 12.6818C93.7472 12.4943 93.8168 12.3338 93.956 12.2003C94.098 12.0668 94.267 12 94.4631 12C94.6591 12 94.8267 12.0668 94.9659 12.2003C95.108 12.3338 95.179 12.4943 95.179 12.6818C95.179 12.8693 95.108 13.0298 94.9659 13.1634C94.8267 13.2969 94.6591 13.3636 94.4631 13.3636ZM97.805 17.0625V21H96.7994V14.4545H97.771V15.4773H97.8562C98.0096 15.1449 98.2425 14.8778 98.555 14.6761C98.8675 14.4716 99.271 14.3693 99.7653 14.3693C100.208 14.3693 100.596 14.4602 100.929 14.642C101.261 14.821 101.52 15.0938 101.704 15.4602C101.889 15.8239 101.981 16.2841 101.981 16.8409V21H100.975V16.9091C100.975 16.3949 100.842 15.9943 100.575 15.7074C100.308 15.4176 99.9414 15.2727 99.4755 15.2727C99.1545 15.2727 98.8675 15.3423 98.6147 15.4815C98.3647 15.6207 98.1673 15.8239 98.0224 16.0909C97.8775 16.358 97.805 16.6818 97.805 17.0625ZM106.461 23.5909C105.975 23.5909 105.558 23.5284 105.208 23.4034C104.859 23.2812 104.567 23.1193 104.335 22.9176C104.104 22.7188 103.921 22.5057 103.785 22.2784L104.586 21.7159C104.677 21.8352 104.792 21.9716 104.931 22.125C105.07 22.2812 105.261 22.4162 105.502 22.5298C105.746 22.6463 106.066 22.7045 106.461 22.7045C106.989 22.7045 107.425 22.5767 107.769 22.321C108.113 22.0653 108.285 21.6648 108.285 21.1193V19.7898H108.2C108.126 19.9091 108.021 20.0568 107.884 20.233C107.751 20.4062 107.558 20.5611 107.305 20.6974C107.055 20.831 106.717 20.8977 106.29 20.8977C105.762 20.8977 105.288 20.7727 104.867 20.5227C104.45 20.2727 104.119 19.9091 103.874 19.4318C103.633 18.9545 103.512 18.375 103.512 17.6932C103.512 17.0227 103.63 16.4389 103.866 15.9418C104.102 15.4418 104.43 15.0554 104.85 14.7827C105.271 14.5071 105.756 14.3693 106.308 14.3693C106.734 14.3693 107.072 14.4403 107.322 14.5824C107.575 14.7216 107.768 14.8807 107.901 15.0597C108.038 15.2358 108.143 15.3807 108.217 15.4943H108.319V14.4545H109.29V21.1875C109.29 21.75 109.163 22.2074 108.907 22.5597C108.654 22.9148 108.313 23.1747 107.884 23.3395C107.458 23.5071 106.984 23.5909 106.461 23.5909ZM106.427 19.9943C106.83 19.9943 107.171 19.902 107.45 19.7173C107.728 19.5327 107.94 19.267 108.085 18.9205C108.229 18.5739 108.302 18.1591 108.302 17.6761C108.302 17.2045 108.231 16.7884 108.089 16.4276C107.947 16.0668 107.737 15.7841 107.458 15.5795C107.18 15.375 106.836 15.2727 106.427 15.2727C106.001 15.2727 105.646 15.3807 105.362 15.5966C105.08 15.8125 104.869 16.1023 104.727 16.4659C104.587 16.8295 104.518 17.233 104.518 17.6761C104.518 18.1307 104.589 18.5327 104.731 18.8821C104.876 19.2287 105.089 19.5014 105.37 19.7003C105.654 19.8963 106.006 19.9943 106.427 19.9943ZM113.876 21.1364C113.245 21.1364 112.701 20.9972 112.244 20.7188C111.789 20.4375 111.438 20.0455 111.191 19.5426C110.947 19.0369 110.825 18.4489 110.825 17.7784C110.825 17.108 110.947 16.517 111.191 16.0057C111.438 15.4915 111.782 15.0909 112.222 14.804C112.665 14.5142 113.183 14.3693 113.773 14.3693C114.114 14.3693 114.451 14.4261 114.783 14.5398C115.116 14.6534 115.418 14.8381 115.691 15.0938C115.964 15.3466 116.181 15.6818 116.343 16.0994C116.505 16.517 116.586 17.0312 116.586 17.642V18.0682H111.54V17.1989H115.563C115.563 16.8295 115.489 16.5 115.342 16.2102C115.197 15.9205 114.989 15.6918 114.719 15.5241C114.452 15.3565 114.137 15.2727 113.773 15.2727C113.373 15.2727 113.026 15.3722 112.734 15.571C112.444 15.767 112.221 16.0227 112.065 16.3381C111.908 16.6534 111.83 16.9915 111.83 17.3523V17.9318C111.83 18.4261 111.915 18.8452 112.086 19.1889C112.259 19.5298 112.499 19.7898 112.806 19.9688C113.113 20.1449 113.469 20.233 113.876 20.233C114.14 20.233 114.379 20.196 114.592 20.1222C114.808 20.0455 114.994 19.9318 115.15 19.7812C115.306 19.6278 115.427 19.4375 115.512 19.2102L116.484 19.483C116.381 19.8125 116.21 20.1023 115.968 20.3523C115.727 20.5994 115.428 20.7926 115.073 20.9318C114.718 21.0682 114.319 21.1364 113.876 21.1364ZM118.116 21V14.4545H119.087V15.4432H119.156C119.275 15.1193 119.491 14.8565 119.803 14.6548C120.116 14.4531 120.468 14.3523 120.86 14.3523C120.934 14.3523 121.026 14.3537 121.137 14.3565C121.248 14.3594 121.332 14.3636 121.388 14.3693V15.392C121.354 15.3835 121.276 15.3707 121.154 15.3537C121.035 15.3338 120.908 15.3239 120.775 15.3239C120.457 15.3239 120.173 15.3906 119.923 15.5241C119.675 15.6548 119.479 15.8366 119.335 16.0696C119.192 16.2997 119.121 16.5625 119.121 16.858V21H118.116ZM128.615 21.1364C128.024 21.1364 127.505 20.9957 127.059 20.7145C126.616 20.4332 126.27 20.0398 126.02 19.5341C125.772 19.0284 125.649 18.4375 125.649 17.7614C125.649 17.0795 125.772 16.4844 126.02 15.9759C126.27 15.4673 126.616 15.0724 127.059 14.7912C127.505 14.5099 128.024 14.3693 128.615 14.3693C129.206 14.3693 129.723 14.5099 130.166 14.7912C130.612 15.0724 130.958 15.4673 131.206 15.9759C131.456 16.4844 131.581 17.0795 131.581 17.7614C131.581 18.4375 131.456 19.0284 131.206 19.5341C130.958 20.0398 130.612 20.4332 130.166 20.7145C129.723 20.9957 129.206 21.1364 128.615 21.1364ZM128.615 20.233C129.064 20.233 129.433 20.1179 129.723 19.8878C130.012 19.6577 130.227 19.3551 130.366 18.9801C130.505 18.6051 130.575 18.1989 130.575 17.7614C130.575 17.3239 130.505 16.9162 130.366 16.5384C130.227 16.1605 130.012 15.8551 129.723 15.6222C129.433 15.3892 129.064 15.2727 128.615 15.2727C128.166 15.2727 127.797 15.3892 127.507 15.6222C127.217 15.8551 127.002 16.1605 126.863 16.5384C126.724 16.9162 126.654 17.3239 126.654 17.7614C126.654 18.1989 126.724 18.6051 126.863 18.9801C127.002 19.3551 127.217 19.6577 127.507 19.8878C127.797 20.1179 128.166 20.233 128.615 20.233ZM134.121 17.0625V21H133.116V14.4545H134.087V15.4773H134.173C134.326 15.1449 134.559 14.8778 134.871 14.6761C135.184 14.4716 135.587 14.3693 136.082 14.3693C136.525 14.3693 136.913 14.4602 137.245 14.642C137.577 14.821 137.836 15.0938 138.021 15.4602C138.205 15.8239 138.298 16.2841 138.298 16.8409V21H137.292V16.9091C137.292 16.3949 137.158 15.9943 136.891 15.7074C136.624 15.4176 136.258 15.2727 135.792 15.2727C135.471 15.2727 135.184 15.3423 134.931 15.4815C134.681 15.6207 134.484 15.8239 134.339 16.0909C134.194 16.358 134.121 16.6818 134.121 17.0625ZM146.357 14.4545V15.3068H142.965V14.4545H146.357ZM143.953 12.8864H144.959V19.125C144.959 19.4091 145 19.6222 145.083 19.7642C145.168 19.9034 145.276 19.9972 145.407 20.0455C145.54 20.0909 145.681 20.1136 145.828 20.1136C145.939 20.1136 146.03 20.108 146.101 20.0966C146.172 20.0824 146.229 20.071 146.272 20.0625L146.476 20.9659C146.408 20.9915 146.313 21.017 146.191 21.0426C146.069 21.071 145.914 21.0852 145.726 21.0852C145.442 21.0852 145.164 21.0241 144.891 20.902C144.621 20.7798 144.397 20.5938 144.218 20.3438C144.042 20.0938 143.953 19.7784 143.953 19.3977V12.8864ZM149.016 17.0625V21H148.01V12.2727H149.016V15.4773H149.101C149.255 15.1392 149.485 14.8707 149.792 14.6719C150.101 14.4702 150.513 14.3693 151.027 14.3693C151.473 14.3693 151.864 14.4588 152.199 14.6378C152.534 14.8139 152.794 15.0852 152.979 15.4517C153.167 15.8153 153.26 16.2784 153.26 16.8409V21H152.255V16.9091C152.255 16.3892 152.12 15.9872 151.85 15.7031C151.583 15.4162 151.212 15.2727 150.738 15.2727C150.408 15.2727 150.113 15.3423 149.851 15.4815C149.593 15.6207 149.388 15.8239 149.238 16.0909C149.09 16.358 149.016 16.6818 149.016 17.0625ZM157.844 21.1364C157.214 21.1364 156.67 20.9972 156.212 20.7188C155.758 20.4375 155.407 20.0455 155.16 19.5426C154.915 19.0369 154.793 18.4489 154.793 17.7784C154.793 17.108 154.915 16.517 155.16 16.0057C155.407 15.4915 155.751 15.0909 156.191 14.804C156.634 14.5142 157.151 14.3693 157.742 14.3693C158.083 14.3693 158.42 14.4261 158.752 14.5398C159.085 14.6534 159.387 14.8381 159.66 15.0938C159.933 15.3466 160.15 15.6818 160.312 16.0994C160.474 16.517 160.555 17.0312 160.555 17.642V18.0682H155.509V17.1989H159.532C159.532 16.8295 159.458 16.5 159.31 16.2102C159.165 15.9205 158.958 15.6918 158.688 15.5241C158.421 15.3565 158.106 15.2727 157.742 15.2727C157.342 15.2727 156.995 15.3722 156.702 15.571C156.413 15.767 156.19 16.0227 156.033 16.3381C155.877 16.6534 155.799 16.9915 155.799 17.3523V17.9318C155.799 18.4261 155.884 18.8452 156.055 19.1889C156.228 19.5298 156.468 19.7898 156.775 19.9688C157.082 20.1449 157.438 20.233 157.844 20.233C158.109 20.233 158.347 20.196 158.56 20.1222C158.776 20.0455 158.962 19.9318 159.119 19.7812C159.275 19.6278 159.396 19.4375 159.481 19.2102L160.452 19.483C160.35 19.8125 160.178 20.1023 159.937 20.3523C159.695 20.5994 159.397 20.7926 159.042 20.9318C158.687 21.0682 158.288 21.1364 157.844 21.1364ZM168.374 14.4545V15.3068H164.846V14.4545H168.374ZM165.903 21V13.5511C165.903 13.1761 165.991 12.8636 166.167 12.6136C166.343 12.3636 166.572 12.1761 166.853 12.0511C167.134 11.9261 167.431 11.8636 167.744 11.8636C167.991 11.8636 168.192 11.8835 168.349 11.9233C168.505 11.9631 168.621 12 168.698 12.0341L168.408 12.9034C168.357 12.8864 168.286 12.8651 168.195 12.8395C168.107 12.8139 167.991 12.8011 167.846 12.8011C167.513 12.8011 167.273 12.8849 167.126 13.0526C166.981 13.2202 166.908 13.4659 166.908 13.7898V21H165.903ZM169.784 21V14.4545H170.789V21H169.784ZM170.295 13.3636C170.099 13.3636 169.93 13.2969 169.788 13.1634C169.649 13.0298 169.579 12.8693 169.579 12.6818C169.579 12.4943 169.649 12.3338 169.788 12.2003C169.93 12.0668 170.099 12 170.295 12C170.491 12 170.659 12.0668 170.798 12.2003C170.94 12.3338 171.011 12.4943 171.011 12.6818C171.011 12.8693 170.94 13.0298 170.798 13.1634C170.659 13.2969 170.491 13.3636 170.295 13.3636ZM173.637 17.0625V21H172.631V14.4545H173.603V15.4773H173.688C173.842 15.1449 174.075 14.8778 174.387 14.6761C174.7 14.4716 175.103 14.3693 175.597 14.3693C176.04 14.3693 176.428 14.4602 176.761 14.642C177.093 14.821 177.352 15.0938 177.536 15.4602C177.721 15.8239 177.813 16.2841 177.813 16.8409V21H176.808V16.9091C176.808 16.3949 176.674 15.9943 176.407 15.7074C176.14 15.4176 175.773 15.2727 175.308 15.2727C174.987 15.2727 174.7 15.3423 174.447 15.4815C174.197 15.6207 173.999 15.8239 173.854 16.0909C173.71 16.358 173.637 16.6818 173.637 17.0625ZM182.293 23.5909C181.807 23.5909 181.39 23.5284 181.04 23.4034C180.691 23.2812 180.4 23.1193 180.167 22.9176C179.936 22.7188 179.753 22.5057 179.617 22.2784L180.418 21.7159C180.509 21.8352 180.624 21.9716 180.763 22.125C180.902 22.2812 181.093 22.4162 181.334 22.5298C181.578 22.6463 181.898 22.7045 182.293 22.7045C182.821 22.7045 183.257 22.5767 183.601 22.321C183.945 22.0653 184.117 21.6648 184.117 21.1193V19.7898H184.032C183.958 19.9091 183.853 20.0568 183.716 20.233C183.583 20.4062 183.39 20.5611 183.137 20.6974C182.887 20.831 182.549 20.8977 182.123 20.8977C181.594 20.8977 181.12 20.7727 180.699 20.5227C180.282 20.2727 179.951 19.9091 179.706 19.4318C179.465 18.9545 179.344 18.375 179.344 17.6932C179.344 17.0227 179.462 16.4389 179.698 15.9418C179.934 15.4418 180.262 15.0554 180.682 14.7827C181.103 14.5071 181.588 14.3693 182.14 14.3693C182.566 14.3693 182.904 14.4403 183.154 14.5824C183.407 14.7216 183.6 14.8807 183.733 15.0597C183.87 15.2358 183.975 15.3807 184.049 15.4943H184.151V14.4545H185.123V21.1875C185.123 21.75 184.995 22.2074 184.739 22.5597C184.486 22.9148 184.145 23.1747 183.716 23.3395C183.29 23.5071 182.816 23.5909 182.293 23.5909ZM182.259 19.9943C182.662 19.9943 183.003 19.902 183.282 19.7173C183.56 19.5327 183.772 19.267 183.917 18.9205C184.061 18.5739 184.134 18.1591 184.134 17.6761C184.134 17.2045 184.063 16.7884 183.921 16.4276C183.779 16.0668 183.569 15.7841 183.29 15.5795C183.012 15.375 182.668 15.2727 182.259 15.2727C181.833 15.2727 181.478 15.3807 181.194 15.5966C180.912 15.8125 180.701 16.1023 180.559 16.4659C180.419 16.8295 180.35 17.233 180.35 17.6761C180.35 18.1307 180.421 18.5327 180.563 18.8821C180.708 19.2287 180.921 19.5014 181.202 19.7003C181.486 19.8963 181.838 19.9943 182.259 19.9943ZM189.708 21.1364C189.077 21.1364 188.533 20.9972 188.076 20.7188C187.621 20.4375 187.27 20.0455 187.023 19.5426C186.779 19.0369 186.657 18.4489 186.657 17.7784C186.657 17.108 186.779 16.517 187.023 16.0057C187.27 15.4915 187.614 15.0909 188.054 14.804C188.498 14.5142 189.015 14.3693 189.605 14.3693C189.946 14.3693 190.283 14.4261 190.615 14.5398C190.948 14.6534 191.25 14.8381 191.523 15.0938C191.796 15.3466 192.013 15.6818 192.175 16.0994C192.337 16.517 192.418 17.0312 192.418 17.642V18.0682H187.373V17.1989H191.395C191.395 16.8295 191.321 16.5 191.174 16.2102C191.029 15.9205 190.821 15.6918 190.551 15.5241C190.284 15.3565 189.969 15.2727 189.605 15.2727C189.205 15.2727 188.858 15.3722 188.566 15.571C188.276 15.767 188.053 16.0227 187.897 16.3381C187.74 16.6534 187.662 16.9915 187.662 17.3523V17.9318C187.662 18.4261 187.748 18.8452 187.918 19.1889C188.091 19.5298 188.331 19.7898 188.638 19.9688C188.945 20.1449 189.301 20.233 189.708 20.233C189.972 20.233 190.211 20.196 190.424 20.1222C190.64 20.0455 190.826 19.9318 190.982 19.7812C191.138 19.6278 191.259 19.4375 191.344 19.2102L192.316 19.483C192.213 19.8125 192.042 20.1023 191.8 20.3523C191.559 20.5994 191.26 20.7926 190.905 20.9318C190.55 21.0682 190.151 21.1364 189.708 21.1364ZM193.948 21V14.4545H194.919V15.4432H194.988C195.107 15.1193 195.323 14.8565 195.635 14.6548C195.948 14.4531 196.3 14.3523 196.692 14.3523C196.766 14.3523 196.858 14.3537 196.969 14.3565C197.08 14.3594 197.164 14.3636 197.221 14.3693V15.392C197.186 15.3835 197.108 15.3707 196.986 15.3537C196.867 15.3338 196.74 15.3239 196.607 15.3239C196.289 15.3239 196.005 15.3906 195.755 15.5241C195.507 15.6548 195.311 15.8366 195.167 16.0696C195.025 16.2997 194.953 16.5625 194.953 16.858V21H193.948ZM198.413 23.4545V14.4545H199.384V15.4943H199.504C199.577 15.3807 199.68 15.2358 199.81 15.0597C199.944 14.8807 200.134 14.7216 200.381 14.5824C200.631 14.4403 200.969 14.3693 201.396 14.3693C201.947 14.3693 202.433 14.5071 202.853 14.7827C203.273 15.0582 203.602 15.4489 203.837 15.9545C204.073 16.4602 204.191 17.0568 204.191 17.7443C204.191 18.4375 204.073 19.0384 203.837 19.5469C203.602 20.0526 203.275 20.4446 202.857 20.723C202.44 20.9986 201.958 21.1364 201.413 21.1364C200.992 21.1364 200.656 21.0668 200.403 20.9276C200.15 20.7855 199.955 20.625 199.819 20.446C199.683 20.2642 199.577 20.1136 199.504 19.9943H199.418V23.4545H198.413ZM199.401 17.7273C199.401 18.2216 199.474 18.6577 199.619 19.0355C199.763 19.4105 199.975 19.7045 200.254 19.9176C200.532 20.1278 200.873 20.233 201.276 20.233C201.697 20.233 202.048 20.1222 202.329 19.9006C202.613 19.6761 202.826 19.375 202.968 18.9972C203.113 18.6165 203.185 18.1932 203.185 17.7273C203.185 17.267 203.114 16.8523 202.972 16.483C202.833 16.1108 202.621 15.8168 202.337 15.6009C202.056 15.3821 201.702 15.2727 201.276 15.2727C200.867 15.2727 200.523 15.3764 200.245 15.5838C199.967 15.7884 199.756 16.0753 199.614 16.4446C199.472 16.8111 199.401 17.2386 199.401 17.7273ZM205.725 21V14.4545H206.697V15.4432H206.765C206.884 15.1193 207.1 14.8565 207.413 14.6548C207.725 14.4531 208.077 14.3523 208.469 14.3523C208.543 14.3523 208.636 14.3537 208.746 14.3565C208.857 14.3594 208.941 14.3636 208.998 14.3693V15.392C208.964 15.3835 208.886 15.3707 208.763 15.3537C208.644 15.3338 208.518 15.3239 208.384 15.3239C208.066 15.3239 207.782 15.3906 207.532 15.5241C207.285 15.6548 207.089 15.8366 206.944 16.0696C206.802 16.2997 206.731 16.5625 206.731 16.858V21H205.725ZM210.19 21V14.4545H211.196V21H210.19ZM210.701 13.3636C210.505 13.3636 210.336 13.2969 210.194 13.1634C210.055 13.0298 209.985 12.8693 209.985 12.6818C209.985 12.4943 210.055 12.3338 210.194 12.2003C210.336 12.0668 210.505 12 210.701 12C210.897 12 211.065 12.0668 211.204 12.2003C211.346 12.3338 211.417 12.4943 211.417 12.6818C211.417 12.8693 211.346 13.0298 211.204 13.1634C211.065 13.2969 210.897 13.3636 210.701 13.3636ZM214.043 17.0625V21H213.038V14.4545H214.009V15.4773H214.094C214.248 15.1449 214.481 14.8778 214.793 14.6761C215.106 14.4716 215.509 14.3693 216.004 14.3693C216.447 14.3693 216.835 14.4602 217.167 14.642C217.499 14.821 217.758 15.0938 217.942 15.4602C218.127 15.8239 218.219 16.2841 218.219 16.8409V21H217.214V16.9091C217.214 16.3949 217.08 15.9943 216.813 15.7074C216.546 15.4176 216.18 15.2727 215.714 15.2727C215.393 15.2727 215.106 15.3423 214.853 15.4815C214.603 15.6207 214.406 15.8239 214.261 16.0909C214.116 16.358 214.043 16.6818 214.043 17.0625ZM222.904 14.4545V15.3068H219.512V14.4545H222.904ZM220.5 12.8864H221.506V19.125C221.506 19.4091 221.547 19.6222 221.63 19.7642C221.715 19.9034 221.823 19.9972 221.953 20.0455C222.087 20.0909 222.228 20.1136 222.375 20.1136C222.486 20.1136 222.577 20.108 222.648 20.0966C222.719 20.0824 222.776 20.071 222.819 20.0625L223.023 20.9659C222.955 20.9915 222.86 21.017 222.738 21.0426C222.615 21.071 222.461 21.0852 222.273 21.0852C221.989 21.0852 221.711 21.0241 221.438 20.902C221.168 20.7798 220.944 20.5938 220.765 20.3438C220.588 20.0938 220.5 19.7784 220.5 19.3977V12.8864ZM232.428 15.9205L231.525 16.1761C231.468 16.0256 231.384 15.8793 231.273 15.7372C231.165 15.5923 231.017 15.473 230.83 15.3793C230.642 15.2855 230.402 15.2386 230.11 15.2386C229.709 15.2386 229.375 15.331 229.108 15.5156C228.844 15.6974 228.712 15.929 228.712 16.2102C228.712 16.4602 228.803 16.6577 228.985 16.8026C229.167 16.9474 229.451 17.0682 229.837 17.1648L230.809 17.4034C231.394 17.5455 231.83 17.7628 232.117 18.0554C232.404 18.3452 232.547 18.7187 232.547 19.1761C232.547 19.5511 232.439 19.8864 232.223 20.1818C232.01 20.4773 231.712 20.7102 231.328 20.8807C230.945 21.0511 230.499 21.1364 229.99 21.1364C229.323 21.1364 228.77 20.9915 228.333 20.7017C227.895 20.4119 227.618 19.9886 227.502 19.4318L228.456 19.1932C228.547 19.5455 228.719 19.8097 228.972 19.9858C229.228 20.1619 229.561 20.25 229.973 20.25C230.442 20.25 230.814 20.1506 231.09 19.9517C231.368 19.75 231.507 19.5085 231.507 19.2273C231.507 19 231.428 18.8097 231.269 18.6562C231.11 18.5 230.865 18.3835 230.536 18.3068L229.445 18.0511C228.846 17.9091 228.405 17.6889 228.124 17.3906C227.846 17.0895 227.706 16.7131 227.706 16.2614C227.706 15.892 227.81 15.5653 228.017 15.2812C228.228 14.9972 228.513 14.7741 228.874 14.6122C229.238 14.4503 229.65 14.3693 230.11 14.3693C230.757 14.3693 231.266 14.5114 231.635 14.7955C232.007 15.0795 232.272 15.4545 232.428 15.9205ZM236.72 21.1364C236.107 21.1364 235.578 20.9915 235.135 20.7017C234.692 20.4119 234.351 20.0128 234.112 19.5043C233.874 18.9957 233.754 18.4148 233.754 17.7614C233.754 17.0966 233.876 16.5099 234.121 16.0014C234.368 15.4901 234.712 15.0909 235.152 14.804C235.595 14.5142 236.112 14.3693 236.703 14.3693C237.163 14.3693 237.578 14.4545 237.947 14.625C238.317 14.7955 238.619 15.0341 238.855 15.3409C239.091 15.6477 239.237 16.0057 239.294 16.4148H238.288C238.212 16.1165 238.041 15.8523 237.777 15.6222C237.516 15.3892 237.163 15.2727 236.72 15.2727C236.328 15.2727 235.984 15.375 235.689 15.5795C235.396 15.7812 235.168 16.0668 235.003 16.4361C234.841 16.8026 234.76 17.233 234.76 17.7273C234.76 18.233 234.839 18.6733 234.999 19.0483C235.161 19.4233 235.388 19.7145 235.68 19.9219C235.976 20.1293 236.322 20.233 236.72 20.233C236.982 20.233 237.219 20.1875 237.432 20.0966C237.645 20.0057 237.825 19.875 237.973 19.7045C238.121 19.5341 238.226 19.3295 238.288 19.0909H239.294C239.237 19.4773 239.097 19.8253 238.872 20.1349C238.651 20.4418 238.357 20.6861 237.99 20.8679C237.626 21.0469 237.203 21.1364 236.72 21.1364ZM242.69 21.1534C242.276 21.1534 241.899 21.0753 241.561 20.919C241.223 20.7599 240.955 20.5312 240.756 20.233C240.557 19.9318 240.457 19.5682 240.457 19.142C240.457 18.767 240.531 18.4631 240.679 18.2301C240.827 17.9943 241.024 17.8097 241.271 17.6761C241.518 17.5426 241.791 17.4432 242.089 17.3778C242.391 17.3097 242.693 17.2557 242.997 17.2159C243.395 17.1648 243.717 17.1264 243.964 17.1009C244.214 17.0724 244.396 17.0256 244.51 16.9602C244.626 16.8949 244.685 16.7812 244.685 16.6193V16.5852C244.685 16.1648 244.57 15.8381 244.339 15.6051C244.112 15.3722 243.767 15.2557 243.304 15.2557C242.824 15.2557 242.447 15.3608 242.175 15.571C241.902 15.7812 241.71 16.0057 241.599 16.2443L240.645 15.9034C240.815 15.5057 241.043 15.196 241.327 14.9744C241.614 14.75 241.926 14.5937 242.264 14.5057C242.605 14.4148 242.94 14.3693 243.27 14.3693C243.48 14.3693 243.722 14.3949 243.994 14.446C244.27 14.4943 244.536 14.5952 244.791 14.7486C245.05 14.902 245.264 15.1335 245.435 15.4432C245.605 15.7528 245.69 16.1676 245.69 16.6875V21H244.685V20.1136H244.634C244.565 20.2557 244.452 20.4077 244.293 20.5696C244.134 20.7315 243.922 20.8693 243.658 20.983C243.393 21.0966 243.071 21.1534 242.69 21.1534ZM242.844 20.25C243.241 20.25 243.577 20.1719 243.849 20.0156C244.125 19.8594 244.332 19.6577 244.472 19.4105C244.614 19.1634 244.685 18.9034 244.685 18.6307V17.7102C244.642 17.7614 244.548 17.8082 244.403 17.8509C244.261 17.8906 244.097 17.9261 243.909 17.9574C243.724 17.9858 243.544 18.0114 243.368 18.0341C243.195 18.054 243.054 18.071 242.946 18.0852C242.685 18.1193 242.44 18.1747 242.213 18.2514C241.989 18.3253 241.807 18.4375 241.668 18.5881C241.531 18.7358 241.463 18.9375 241.463 19.1932C241.463 19.5426 241.592 19.8068 241.851 19.9858C242.112 20.1619 242.443 20.25 242.844 20.25ZM248.532 17.0625V21H247.526V14.4545H248.498V15.4773H248.583C248.736 15.1449 248.969 14.8778 249.282 14.6761C249.594 14.4716 249.998 14.3693 250.492 14.3693C250.935 14.3693 251.323 14.4602 251.655 14.642C251.988 14.821 252.246 15.0938 252.431 15.4602C252.615 15.8239 252.708 16.2841 252.708 16.8409V21H251.702V16.9091C251.702 16.3949 251.569 15.9943 251.301 15.7074C251.034 15.4176 250.668 15.2727 250.202 15.2727C249.881 15.2727 249.594 15.3423 249.341 15.4815C249.091 15.6207 248.894 15.8239 248.749 16.0909C248.604 16.358 248.532 16.6818 248.532 17.0625ZM255.551 17.0625V21H254.545V14.4545H255.517V15.4773H255.602C255.756 15.1449 255.989 14.8778 256.301 14.6761C256.614 14.4716 257.017 14.3693 257.511 14.3693C257.955 14.3693 258.342 14.4602 258.675 14.642C259.007 14.821 259.266 15.0938 259.45 15.4602C259.635 15.8239 259.727 16.2841 259.727 16.8409V21H258.722V16.9091C258.722 16.3949 258.588 15.9943 258.321 15.7074C258.054 15.4176 257.688 15.2727 257.222 15.2727C256.901 15.2727 256.614 15.3423 256.361 15.4815C256.111 15.6207 255.913 15.8239 255.768 16.0909C255.624 16.358 255.551 16.6818 255.551 17.0625ZM264.309 21.1364C263.679 21.1364 263.135 20.9972 262.677 20.7188C262.223 20.4375 261.872 20.0455 261.625 19.5426C261.38 19.0369 261.258 18.4489 261.258 17.7784C261.258 17.108 261.38 16.517 261.625 16.0057C261.872 15.4915 262.216 15.0909 262.656 14.804C263.099 14.5142 263.616 14.3693 264.207 14.3693C264.548 14.3693 264.885 14.4261 265.217 14.5398C265.549 14.6534 265.852 14.8381 266.125 15.0938C266.397 15.3466 266.615 15.6818 266.777 16.0994C266.939 16.517 267.02 17.0312 267.02 17.642V18.0682H261.974V17.1989H265.997C265.997 16.8295 265.923 16.5 265.775 16.2102C265.63 15.9205 265.423 15.6918 265.153 15.5241C264.886 15.3565 264.571 15.2727 264.207 15.2727C263.806 15.2727 263.46 15.3722 263.167 15.571C262.877 15.767 262.654 16.0227 262.498 16.3381C262.342 16.6534 262.264 16.9915 262.264 17.3523V17.9318C262.264 18.4261 262.349 18.8452 262.52 19.1889C262.693 19.5298 262.933 19.7898 263.24 19.9688C263.547 20.1449 263.903 20.233 264.309 20.233C264.574 20.233 264.812 20.196 265.025 20.1222C265.241 20.0455 265.427 19.9318 265.583 19.7812C265.74 19.6278 265.86 19.4375 265.946 19.2102L266.917 19.483C266.815 19.8125 266.643 20.1023 266.402 20.3523C266.16 20.5994 265.862 20.7926 265.507 20.9318C265.152 21.0682 264.752 21.1364 264.309 21.1364ZM268.549 21V14.4545H269.521V15.4432H269.589C269.708 15.1193 269.924 14.8565 270.237 14.6548C270.549 14.4531 270.902 14.3523 271.294 14.3523C271.368 14.3523 271.46 14.3537 271.571 14.3565C271.681 14.3594 271.765 14.3636 271.822 14.3693V15.392C271.788 15.3835 271.71 15.3707 271.588 15.3537C271.468 15.3338 271.342 15.3239 271.208 15.3239C270.89 15.3239 270.606 15.3906 270.356 15.5241C270.109 15.6548 269.913 15.8366 269.768 16.0696C269.626 16.2997 269.555 16.5625 269.555 16.858V21H268.549ZM279.236 14.4545V15.3068H275.844V14.4545H279.236ZM276.832 12.8864H277.838V19.125C277.838 19.4091 277.879 19.6222 277.962 19.7642C278.047 19.9034 278.155 19.9972 278.286 20.0455C278.419 20.0909 278.56 20.1136 278.707 20.1136C278.818 20.1136 278.909 20.108 278.98 20.0966C279.051 20.0824 279.108 20.071 279.151 20.0625L279.355 20.9659C279.287 20.9915 279.192 21.017 279.07 21.0426C278.947 21.071 278.793 21.0852 278.605 21.0852C278.321 21.0852 278.043 21.0241 277.77 20.902C277.5 20.7798 277.276 20.5938 277.097 20.3438C276.92 20.0938 276.832 19.7784 276.832 19.3977V12.8864ZM283.337 21.1364C282.746 21.1364 282.228 20.9957 281.782 20.7145C281.339 20.4332 280.992 20.0398 280.742 19.5341C280.495 19.0284 280.371 18.4375 280.371 17.7614C280.371 17.0795 280.495 16.4844 280.742 15.9759C280.992 15.4673 281.339 15.0724 281.782 14.7912C282.228 14.5099 282.746 14.3693 283.337 14.3693C283.928 14.3693 284.445 14.5099 284.888 14.7912C285.335 15.0724 285.681 15.4673 285.928 15.9759C286.178 16.4844 286.303 17.0795 286.303 17.7614C286.303 18.4375 286.178 19.0284 285.928 19.5341C285.681 20.0398 285.335 20.4332 284.888 20.7145C284.445 20.9957 283.928 21.1364 283.337 21.1364ZM283.337 20.233C283.786 20.233 284.156 20.1179 284.445 19.8878C284.735 19.6577 284.95 19.3551 285.089 18.9801C285.228 18.6051 285.298 18.1989 285.298 17.7614C285.298 17.3239 285.228 16.9162 285.089 16.5384C284.95 16.1605 284.735 15.8551 284.445 15.6222C284.156 15.3892 283.786 15.2727 283.337 15.2727C282.888 15.2727 282.519 15.3892 282.229 15.6222C281.94 15.8551 281.725 16.1605 281.586 16.5384C281.447 16.9162 281.377 17.3239 281.377 17.7614C281.377 18.1989 281.447 18.6051 281.586 18.9801C281.725 19.3551 281.94 19.6577 282.229 19.8878C282.519 20.1179 282.888 20.233 283.337 20.233ZM293.873 21.1364C293.259 21.1364 292.73 20.9915 292.287 20.7017C291.844 20.4119 291.503 20.0128 291.265 19.5043C291.026 18.9957 290.907 18.4148 290.907 17.7614C290.907 17.0966 291.029 16.5099 291.273 16.0014C291.52 15.4901 291.864 15.0909 292.304 14.804C292.748 14.5142 293.265 14.3693 293.855 14.3693C294.316 14.3693 294.73 14.4545 295.1 14.625C295.469 14.7955 295.772 15.0341 296.007 15.3409C296.243 15.6477 296.39 16.0057 296.446 16.4148H295.441C295.364 16.1165 295.194 15.8523 294.929 15.6222C294.668 15.3892 294.316 15.2727 293.873 15.2727C293.48 15.2727 293.137 15.375 292.841 15.5795C292.549 15.7812 292.32 16.0668 292.155 16.4361C291.993 16.8026 291.912 17.233 291.912 17.7273C291.912 18.233 291.992 18.6733 292.151 19.0483C292.313 19.4233 292.54 19.7145 292.833 19.9219C293.128 20.1293 293.475 20.233 293.873 20.233C294.134 20.233 294.371 20.1875 294.584 20.0966C294.797 20.0057 294.978 19.875 295.125 19.7045C295.273 19.5341 295.378 19.3295 295.441 19.0909H296.446C296.39 19.4773 296.249 19.8253 296.025 20.1349C295.803 20.4418 295.509 20.6861 295.142 20.8679C294.779 21.0469 294.355 21.1364 293.873 21.1364ZM299.843 21.1534C299.428 21.1534 299.051 21.0753 298.713 20.919C298.375 20.7599 298.107 20.5312 297.908 20.233C297.709 19.9318 297.61 19.5682 297.61 19.142C297.61 18.767 297.684 18.4631 297.831 18.2301C297.979 17.9943 298.176 17.8097 298.424 17.6761C298.671 17.5426 298.944 17.4432 299.242 17.3778C299.543 17.3097 299.846 17.2557 300.15 17.2159C300.547 17.1648 300.87 17.1264 301.117 17.1009C301.367 17.0724 301.549 17.0256 301.662 16.9602C301.779 16.8949 301.837 16.7812 301.837 16.6193V16.5852C301.837 16.1648 301.722 15.8381 301.492 15.6051C301.265 15.3722 300.919 15.2557 300.456 15.2557C299.976 15.2557 299.6 15.3608 299.327 15.571C299.054 15.7812 298.863 16.0057 298.752 16.2443L297.797 15.9034C297.968 15.5057 298.195 15.196 298.479 14.9744C298.766 14.75 299.078 14.5937 299.417 14.5057C299.757 14.4148 300.093 14.3693 300.422 14.3693C300.632 14.3693 300.874 14.3949 301.147 14.446C301.422 14.4943 301.688 14.5952 301.944 14.7486C302.202 14.902 302.417 15.1335 302.587 15.4432C302.757 15.7528 302.843 16.1676 302.843 16.6875V21H301.837V20.1136H301.786C301.718 20.2557 301.604 20.4077 301.445 20.5696C301.286 20.7315 301.074 20.8693 300.81 20.983C300.546 21.0966 300.223 21.1534 299.843 21.1534ZM299.996 20.25C300.394 20.25 300.729 20.1719 301.002 20.0156C301.277 19.8594 301.485 19.6577 301.624 19.4105C301.766 19.1634 301.837 18.9034 301.837 18.6307V17.7102C301.794 17.7614 301.701 17.8082 301.556 17.8509C301.414 17.8906 301.249 17.9261 301.061 17.9574C300.877 17.9858 300.696 18.0114 300.52 18.0341C300.347 18.054 300.206 18.071 300.098 18.0852C299.837 18.1193 299.593 18.1747 299.365 18.2514C299.141 18.3253 298.959 18.4375 298.82 18.5881C298.684 18.7358 298.615 18.9375 298.615 19.1932C298.615 19.5426 298.745 19.8068 299.003 19.9858C299.265 20.1619 299.596 20.25 299.996 20.25ZM304.678 23.4545V14.4545H305.65V15.4943H305.769C305.843 15.3807 305.945 15.2358 306.076 15.0597C306.21 14.8807 306.4 14.7216 306.647 14.5824C306.897 14.4403 307.235 14.3693 307.661 14.3693C308.212 14.3693 308.698 14.5071 309.119 14.7827C309.539 15.0582 309.867 15.4489 310.103 15.9545C310.339 16.4602 310.457 17.0568 310.457 17.7443C310.457 18.4375 310.339 19.0384 310.103 19.5469C309.867 20.0526 309.54 20.4446 309.123 20.723C308.705 20.9986 308.224 21.1364 307.678 21.1364C307.258 21.1364 306.921 21.0668 306.668 20.9276C306.415 20.7855 306.221 20.625 306.085 20.446C305.948 20.2642 305.843 20.1136 305.769 19.9943H305.684V23.4545H304.678ZM305.667 17.7273C305.667 18.2216 305.739 18.6577 305.884 19.0355C306.029 19.4105 306.241 19.7045 306.519 19.9176C306.798 20.1278 307.138 20.233 307.542 20.233C307.962 20.233 308.313 20.1222 308.594 19.9006C308.879 19.6761 309.092 19.375 309.234 18.9972C309.379 18.6165 309.451 18.1932 309.451 17.7273C309.451 17.267 309.38 16.8523 309.238 16.483C309.099 16.1108 308.887 15.8168 308.603 15.6009C308.322 15.3821 307.968 15.2727 307.542 15.2727C307.133 15.2727 306.789 15.3764 306.511 15.5838C306.232 15.7884 306.022 16.0753 305.88 16.4446C305.738 16.8111 305.667 17.2386 305.667 17.7273ZM314.837 14.4545V15.3068H311.445V14.4545H314.837ZM312.434 12.8864H313.44V19.125C313.44 19.4091 313.481 19.6222 313.563 19.7642C313.648 19.9034 313.756 19.9972 313.887 20.0455C314.021 20.0909 314.161 20.1136 314.309 20.1136C314.42 20.1136 314.511 20.108 314.582 20.0966C314.653 20.0824 314.71 20.071 314.752 20.0625L314.957 20.9659C314.888 20.9915 314.793 21.017 314.671 21.0426C314.549 21.071 314.394 21.0852 314.207 21.0852C313.923 21.0852 313.644 21.0241 313.371 20.902C313.102 20.7798 312.877 20.5938 312.698 20.3438C312.522 20.0938 312.434 19.7784 312.434 19.3977V12.8864ZM320.475 18.3239V14.4545H321.481V21H320.475V19.892H320.407C320.254 20.2244 320.015 20.5071 319.691 20.7401C319.367 20.9702 318.958 21.0852 318.464 21.0852C318.055 21.0852 317.691 20.9957 317.373 20.8168C317.055 20.6349 316.805 20.3622 316.623 19.9986C316.441 19.6321 316.35 19.1705 316.35 18.6136V14.4545H317.356V18.5455C317.356 19.0227 317.489 19.4034 317.756 19.6875C318.026 19.9716 318.37 20.1136 318.788 20.1136C319.038 20.1136 319.292 20.0497 319.55 19.9219C319.812 19.794 320.031 19.598 320.207 19.3338C320.386 19.0696 320.475 18.733 320.475 18.3239ZM323.323 21V14.4545H324.294V15.4432H324.363C324.482 15.1193 324.698 14.8565 325.01 14.6548C325.323 14.4531 325.675 14.3523 326.067 14.3523C326.141 14.3523 326.233 14.3537 326.344 14.3565C326.455 14.3594 326.539 14.3636 326.596 14.3693V15.392C326.561 15.3835 326.483 15.3707 326.361 15.3537C326.242 15.3338 326.115 15.3239 325.982 15.3239C325.664 15.3239 325.38 15.3906 325.13 15.5241C324.882 15.6548 324.686 15.8366 324.542 16.0696C324.4 16.2997 324.328 16.5625 324.328 16.858V21H323.323ZM330.333 21.1364C329.702 21.1364 329.158 20.9972 328.701 20.7188C328.246 20.4375 327.895 20.0455 327.648 19.5426C327.404 19.0369 327.282 18.4489 327.282 17.7784C327.282 17.108 327.404 16.517 327.648 16.0057C327.895 15.4915 328.239 15.0909 328.679 14.804C329.123 14.5142 329.64 14.3693 330.23 14.3693C330.571 14.3693 330.908 14.4261 331.24 14.5398C331.573 14.6534 331.875 14.8381 332.148 15.0938C332.421 15.3466 332.638 15.6818 332.8 16.0994C332.962 16.517 333.043 17.0312 333.043 17.642V18.0682H327.998V17.1989H332.02C332.02 16.8295 331.946 16.5 331.799 16.2102C331.654 15.9205 331.446 15.6918 331.176 15.5241C330.909 15.3565 330.594 15.2727 330.23 15.2727C329.83 15.2727 329.483 15.3722 329.191 15.571C328.901 15.767 328.678 16.0227 328.522 16.3381C328.365 16.6534 328.287 16.9915 328.287 17.3523V17.9318C328.287 18.4261 328.373 18.8452 328.543 19.1889C328.716 19.5298 328.956 19.7898 329.263 19.9688C329.57 20.1449 329.926 20.233 330.333 20.233C330.597 20.233 330.836 20.196 331.049 20.1222C331.265 20.0455 331.451 19.9318 331.607 19.7812C331.763 19.6278 331.884 19.4375 331.969 19.2102L332.941 19.483C332.838 19.8125 332.667 20.1023 332.425 20.3523C332.184 20.5994 331.885 20.7926 331.53 20.9318C331.175 21.0682 330.776 21.1364 330.333 21.1364ZM27.5682 41.4545C27.3977 41.4545 27.2457 41.4403 27.1122 41.4119C26.9787 41.3864 26.8864 41.3608 26.8352 41.3352L27.0909 40.4489C27.3352 40.5114 27.5511 40.5341 27.7386 40.517C27.9261 40.5 28.0923 40.4162 28.2372 40.2656C28.3849 40.1179 28.5199 39.8778 28.642 39.5455L28.8295 39.0341L26.4091 32.4545H27.5L29.3068 37.6705H29.375L31.1818 32.4545H32.2727L29.4943 39.9545C29.3693 40.2926 29.2145 40.5724 29.0298 40.794C28.8452 41.0185 28.6307 41.1847 28.3864 41.2926C28.1449 41.4006 27.8722 41.4545 27.5682 41.4545ZM36.0249 39.1364C35.4339 39.1364 34.9155 38.9957 34.4695 38.7145C34.0263 38.4332 33.6797 38.0398 33.4297 37.5341C33.1825 37.0284 33.0589 36.4375 33.0589 35.7614C33.0589 35.0795 33.1825 34.4844 33.4297 33.9759C33.6797 33.4673 34.0263 33.0724 34.4695 32.7912C34.9155 32.5099 35.4339 32.3693 36.0249 32.3693C36.6158 32.3693 37.1328 32.5099 37.576 32.7912C38.022 33.0724 38.3686 33.4673 38.6158 33.9759C38.8658 34.4844 38.9908 35.0795 38.9908 35.7614C38.9908 36.4375 38.8658 37.0284 38.6158 37.5341C38.3686 38.0398 38.022 38.4332 37.576 38.7145C37.1328 38.9957 36.6158 39.1364 36.0249 39.1364ZM36.0249 38.233C36.4737 38.233 36.843 38.1179 37.1328 37.8878C37.4226 37.6577 37.6371 37.3551 37.7763 36.9801C37.9155 36.6051 37.9851 36.1989 37.9851 35.7614C37.9851 35.3239 37.9155 34.9162 37.7763 34.5384C37.6371 34.1605 37.4226 33.8551 37.1328 33.6222C36.843 33.3892 36.4737 33.2727 36.0249 33.2727C35.576 33.2727 35.2067 33.3892 34.9169 33.6222C34.6271 33.8551 34.4126 34.1605 34.2734 34.5384C34.1342 34.9162 34.0646 35.3239 34.0646 35.7614C34.0646 36.1989 34.1342 36.6051 34.2734 36.9801C34.4126 37.3551 34.6271 37.6577 34.9169 37.8878C35.2067 38.1179 35.576 38.233 36.0249 38.233ZM44.6509 36.3239V32.4545H45.6566V39H44.6509V37.892H44.5827C44.4293 38.2244 44.1907 38.5071 43.8668 38.7401C43.543 38.9702 43.1339 39.0852 42.6396 39.0852C42.2305 39.0852 41.8668 38.9957 41.5487 38.8168C41.2305 38.6349 40.9805 38.3622 40.7987 37.9986C40.6168 37.6321 40.5259 37.1705 40.5259 36.6136V32.4545H41.5316V36.5455C41.5316 37.0227 41.6651 37.4034 41.9322 37.6875C42.2021 37.9716 42.5458 38.1136 42.9634 38.1136C43.2134 38.1136 43.4677 38.0497 43.7262 37.9219C43.9876 37.794 44.2063 37.598 44.3825 37.3338C44.5614 37.0696 44.6509 36.733 44.6509 36.3239ZM47.4986 39V32.4545H48.4702V33.4432H48.5384C48.6577 33.1193 48.8736 32.8565 49.1861 32.6548C49.4986 32.4531 49.8509 32.3523 50.2429 32.3523C50.3168 32.3523 50.4091 32.3537 50.5199 32.3565C50.6307 32.3594 50.7145 32.3636 50.7713 32.3693V33.392C50.7372 33.3835 50.6591 33.3707 50.5369 33.3537C50.4176 33.3338 50.2912 33.3239 50.1577 33.3239C49.8395 33.3239 49.5554 33.3906 49.3054 33.5241C49.0582 33.6548 48.8622 33.8366 48.7173 34.0696C48.5753 34.2997 48.5043 34.5625 48.5043 34.858V39H47.4986ZM58.2532 32.4545V33.3068H54.7248V32.4545H58.2532ZM55.7816 39V31.5511C55.7816 31.1761 55.8697 30.8636 56.0458 30.6136C56.2219 30.3636 56.4506 30.1761 56.7319 30.0511C57.0131 29.9261 57.31 29.8636 57.6225 29.8636C57.8697 29.8636 58.0714 29.8835 58.2276 29.9233C58.3839 29.9631 58.5004 30 58.5771 30.0341L58.2873 30.9034C58.2362 30.8864 58.1651 30.8651 58.0742 30.8395C57.9862 30.8139 57.8697 30.8011 57.7248 30.8011C57.3924 30.8011 57.1523 30.8849 57.0046 31.0526C56.8597 31.2202 56.7873 31.4659 56.7873 31.7898V39H55.7816ZM59.6626 39V32.4545H60.6683V39H59.6626ZM60.174 31.3636C59.978 31.3636 59.8089 31.2969 59.6669 31.1634C59.5277 31.0298 59.4581 30.8693 59.4581 30.6818C59.4581 30.4943 59.5277 30.3338 59.6669 30.2003C59.8089 30.0668 59.978 30 60.174 30C60.37 30 60.5376 30.0668 60.6768 30.2003C60.8189 30.3338 60.8899 30.4943 60.8899 30.6818C60.8899 30.8693 60.8189 31.0298 60.6768 31.1634C60.5376 31.2969 60.37 31.3636 60.174 31.3636ZM63.516 35.0625V39H62.5103V32.4545H63.4819V33.4773H63.5671C63.7205 33.1449 63.9535 32.8778 64.266 32.6761C64.5785 32.4716 64.9819 32.3693 65.4762 32.3693C65.9194 32.3693 66.3072 32.4602 66.6396 32.642C66.9719 32.821 67.2305 33.0938 67.4151 33.4602C67.5998 33.8239 67.6921 34.2841 67.6921 34.8409V39H66.6864V34.9091C66.6864 34.3949 66.5529 33.9943 66.2859 33.7074C66.0188 33.4176 65.6523 33.2727 65.1864 33.2727C64.8654 33.2727 64.5785 33.3423 64.3256 33.4815C64.0756 33.6207 63.8782 33.8239 63.7333 34.0909C63.5884 34.358 63.516 34.6818 63.516 35.0625ZM72.1719 41.5909C71.6861 41.5909 71.2685 41.5284 70.919 41.4034C70.5696 41.2812 70.2784 41.1193 70.0455 40.9176C69.8153 40.7188 69.6321 40.5057 69.4957 40.2784L70.2969 39.7159C70.3878 39.8352 70.5028 39.9716 70.642 40.125C70.7813 40.2812 70.9716 40.4162 71.2131 40.5298C71.4574 40.6463 71.777 40.7045 72.1719 40.7045C72.7003 40.7045 73.1364 40.5767 73.4801 40.321C73.8239 40.0653 73.9957 39.6648 73.9957 39.1193V37.7898H73.9105C73.8366 37.9091 73.7315 38.0568 73.5952 38.233C73.4616 38.4062 73.2685 38.5611 73.0156 38.6974C72.7656 38.831 72.4276 38.8977 72.0014 38.8977C71.473 38.8977 70.9986 38.7727 70.5781 38.5227C70.1605 38.2727 69.8295 37.9091 69.5852 37.4318C69.3438 36.9545 69.223 36.375 69.223 35.6932C69.223 35.0227 69.3409 34.4389 69.5767 33.9418C69.8125 33.4418 70.1406 33.0554 70.5611 32.7827C70.9815 32.5071 71.4673 32.3693 72.0185 32.3693C72.4446 32.3693 72.7827 32.4403 73.0327 32.5824C73.2855 32.7216 73.4787 32.8807 73.6122 33.0597C73.7486 33.2358 73.8537 33.3807 73.9276 33.4943H74.0298V32.4545H75.0014V39.1875C75.0014 39.75 74.8736 40.2074 74.6179 40.5597C74.3651 40.9148 74.0241 41.1747 73.5952 41.3395C73.169 41.5071 72.6946 41.5909 72.1719 41.5909ZM72.1378 37.9943C72.5412 37.9943 72.8821 37.902 73.1605 37.7173C73.4389 37.5327 73.6506 37.267 73.7955 36.9205C73.9403 36.5739 74.0128 36.1591 74.0128 35.6761C74.0128 35.2045 73.9418 34.7884 73.7997 34.4276C73.6577 34.0668 73.4474 33.7841 73.169 33.5795C72.8906 33.375 72.5469 33.2727 72.1378 33.2727C71.7116 33.2727 71.3565 33.3807 71.0724 33.5966C70.7912 33.8125 70.5795 34.1023 70.4375 34.4659C70.2983 34.8295 70.2287 35.233 70.2287 35.6761C70.2287 36.1307 70.2997 36.5327 70.4418 36.8821C70.5866 37.2287 70.7997 37.5014 71.081 37.7003C71.3651 37.8963 71.7173 37.9943 72.1378 37.9943ZM79.5866 39.1364C78.956 39.1364 78.4119 38.9972 77.9545 38.7188C77.5 38.4375 77.1491 38.0455 76.902 37.5426C76.6577 37.0369 76.5355 36.4489 76.5355 35.7784C76.5355 35.108 76.6577 34.517 76.902 34.0057C77.1491 33.4915 77.4929 33.0909 77.9332 32.804C78.3764 32.5142 78.8935 32.3693 79.4844 32.3693C79.8253 32.3693 80.1619 32.4261 80.4943 32.5398C80.8267 32.6534 81.1293 32.8381 81.402 33.0938C81.6747 33.3466 81.892 33.6818 82.054 34.0994C82.2159 34.517 82.2969 35.0312 82.2969 35.642V36.0682H77.2514V35.1989H81.2741C81.2741 34.8295 81.2003 34.5 81.0526 34.2102C80.9077 33.9205 80.7003 33.6918 80.4304 33.5241C80.1634 33.3565 79.848 33.2727 79.4844 33.2727C79.0838 33.2727 78.7372 33.3722 78.4446 33.571C78.1548 33.767 77.9318 34.0227 77.7756 34.3381C77.6193 34.6534 77.5412 34.9915 77.5412 35.3523V35.9318C77.5412 36.4261 77.6264 36.8452 77.7969 37.1889C77.9702 37.5298 78.2102 37.7898 78.517 37.9688C78.8239 38.1449 79.1804 38.233 79.5866 38.233C79.8509 38.233 80.0895 38.196 80.3026 38.1222C80.5185 38.0455 80.7045 37.9318 80.8608 37.7812C81.017 37.6278 81.1378 37.4375 81.223 37.2102L82.1946 37.483C82.0923 37.8125 81.9205 38.1023 81.679 38.3523C81.4375 38.5994 81.1392 38.7926 80.7841 38.9318C80.429 39.0682 80.0298 39.1364 79.5866 39.1364ZM83.8267 39V32.4545H84.7983V33.4432H84.8665C84.9858 33.1193 85.2017 32.8565 85.5142 32.6548C85.8267 32.4531 86.179 32.3523 86.571 32.3523C86.6449 32.3523 86.7372 32.3537 86.848 32.3565C86.9588 32.3594 87.0426 32.3636 87.0994 32.3693V33.392C87.0653 33.3835 86.9872 33.3707 86.8651 33.3537C86.7457 33.3338 86.6193 33.3239 86.4858 33.3239C86.1676 33.3239 85.8835 33.3906 85.6335 33.5241C85.3864 33.6548 85.1903 33.8366 85.0455 34.0696C84.9034 34.2997 84.8324 34.5625 84.8324 34.858V39H83.8267ZM88.2915 41.4545V32.4545H89.2631V33.4943H89.3825C89.4563 33.3807 89.5586 33.2358 89.6893 33.0597C89.8228 32.8807 90.0131 32.7216 90.2603 32.5824C90.5103 32.4403 90.8484 32.3693 91.2745 32.3693C91.8256 32.3693 92.3114 32.5071 92.7319 32.7827C93.1523 33.0582 93.4805 33.4489 93.7163 33.9545C93.9521 34.4602 94.07 35.0568 94.07 35.7443C94.07 36.4375 93.9521 37.0384 93.7163 37.5469C93.4805 38.0526 93.1538 38.4446 92.7362 38.723C92.3185 38.9986 91.837 39.1364 91.2915 39.1364C90.8711 39.1364 90.5344 39.0668 90.2816 38.9276C90.0288 38.7855 89.8342 38.625 89.6978 38.446C89.5614 38.2642 89.4563 38.1136 89.3825 37.9943H89.2972V41.4545H88.2915ZM89.2802 35.7273C89.2802 36.2216 89.3526 36.6577 89.4975 37.0355C89.6424 37.4105 89.854 37.7045 90.1325 37.9176C90.4109 38.1278 90.7518 38.233 91.1552 38.233C91.5756 38.233 91.9265 38.1222 92.2077 37.9006C92.4918 37.6761 92.7049 37.375 92.8469 36.9972C92.9918 36.6165 93.0643 36.1932 93.0643 35.7273C93.0643 35.267 92.9933 34.8523 92.8512 34.483C92.712 34.1108 92.5004 33.8168 92.2163 33.6009C91.935 33.3821 91.5813 33.2727 91.1552 33.2727C90.7461 33.2727 90.4023 33.3764 90.1239 33.5838C89.8455 33.7884 89.6353 34.0753 89.4933 34.4446C89.3512 34.8111 89.2802 35.2386 89.2802 35.7273ZM95.604 39V32.4545H96.5756V33.4432H96.6438C96.7631 33.1193 96.979 32.8565 97.2915 32.6548C97.604 32.4531 97.9563 32.3523 98.3484 32.3523C98.4222 32.3523 98.5146 32.3537 98.6254 32.3565C98.7362 32.3594 98.82 32.3636 98.8768 32.3693V33.392C98.8427 33.3835 98.7646 33.3707 98.6424 33.3537C98.5231 33.3338 98.3967 33.3239 98.2631 33.3239C97.945 33.3239 97.6609 33.3906 97.4109 33.5241C97.1637 33.6548 96.9677 33.8366 96.8228 34.0696C96.6808 34.2997 96.6097 34.5625 96.6097 34.858V39H95.604ZM100.069 39V32.4545H101.075V39H100.069ZM100.58 31.3636C100.384 31.3636 100.215 31.2969 100.073 31.1634C99.9339 31.0298 99.8643 30.8693 99.8643 30.6818C99.8643 30.4943 99.9339 30.3338 100.073 30.2003C100.215 30.0668 100.384 30 100.58 30C100.776 30 100.944 30.0668 101.083 30.2003C101.225 30.3338 101.296 30.4943 101.296 30.6818C101.296 30.8693 101.225 31.0298 101.083 31.1634C100.944 31.2969 100.776 31.3636 100.58 31.3636ZM103.922 35.0625V39H102.917V32.4545H103.888V33.4773H103.973C104.127 33.1449 104.36 32.8778 104.672 32.6761C104.985 32.4716 105.388 32.3693 105.882 32.3693C106.326 32.3693 106.713 32.4602 107.046 32.642C107.378 32.821 107.637 33.0938 107.821 33.4602C108.006 33.8239 108.098 34.2841 108.098 34.8409V39H107.093V34.9091C107.093 34.3949 106.959 33.9943 106.692 33.7074C106.425 33.4176 106.059 33.2727 105.593 33.2727C105.272 33.2727 104.985 33.3423 104.732 33.4815C104.482 33.6207 104.284 33.8239 104.14 34.0909C103.995 34.358 103.922 34.6818 103.922 35.0625ZM112.783 32.4545V33.3068H109.391V32.4545H112.783ZM110.379 30.8864H111.385V37.125C111.385 37.4091 111.426 37.6222 111.509 37.7642C111.594 37.9034 111.702 37.9972 111.832 38.0455C111.966 38.0909 112.107 38.1136 112.254 38.1136C112.365 38.1136 112.456 38.108 112.527 38.0966C112.598 38.0824 112.655 38.071 112.697 38.0625L112.902 38.9659C112.834 38.9915 112.739 39.017 112.616 39.0426C112.494 39.071 112.339 39.0852 112.152 39.0852C111.868 39.0852 111.589 39.0241 111.317 38.902C111.047 38.7798 110.822 38.5938 110.643 38.3438C110.467 38.0938 110.379 37.7784 110.379 37.3977V30.8864ZM115.028 39.0682C114.818 39.0682 114.638 38.9929 114.487 38.8423C114.337 38.6918 114.261 38.5114 114.261 38.3011C114.261 38.0909 114.337 37.9105 114.487 37.7599C114.638 37.6094 114.818 37.5341 115.028 37.5341C115.239 37.5341 115.419 37.6094 115.57 37.7599C115.72 37.9105 115.795 38.0909 115.795 38.3011C115.795 38.4403 115.76 38.5682 115.689 38.6847C115.621 38.8011 115.528 38.8949 115.412 38.9659C115.298 39.0341 115.17 39.0682 115.028 39.0682ZM121.112 39V30.2727H126.379V31.2102H122.168V34.1591H126.106V35.0966H122.168V38.0625H126.447V39H121.112ZM129.153 35.0625V39H128.147V32.4545H129.119V33.4773H129.204C129.357 33.1449 129.59 32.8778 129.903 32.6761C130.215 32.4716 130.619 32.3693 131.113 32.3693C131.556 32.3693 131.944 32.4602 132.276 32.642C132.609 32.821 132.867 33.0938 133.052 33.4602C133.237 33.8239 133.329 34.2841 133.329 34.8409V39H132.323V34.9091C132.323 34.3949 132.19 33.9943 131.923 33.7074C131.656 33.4176 131.289 33.2727 130.823 33.2727C130.502 33.2727 130.215 33.3423 129.962 33.4815C129.712 33.6207 129.515 33.8239 129.37 34.0909C129.225 34.358 129.153 34.6818 129.153 35.0625ZM139.803 33.9205L138.9 34.1761C138.843 34.0256 138.759 33.8793 138.648 33.7372C138.54 33.5923 138.392 33.473 138.205 33.3793C138.017 33.2855 137.777 33.2386 137.485 33.2386C137.084 33.2386 136.75 33.331 136.483 33.5156C136.219 33.6974 136.087 33.929 136.087 34.2102C136.087 34.4602 136.178 34.6577 136.36 34.8026C136.542 34.9474 136.826 35.0682 137.212 35.1648L138.184 35.4034C138.769 35.5455 139.205 35.7628 139.492 36.0554C139.779 36.3452 139.922 36.7187 139.922 37.1761C139.922 37.5511 139.814 37.8864 139.598 38.1818C139.385 38.4773 139.087 38.7102 138.703 38.8807C138.32 39.0511 137.874 39.1364 137.365 39.1364C136.698 39.1364 136.145 38.9915 135.708 38.7017C135.27 38.4119 134.993 37.9886 134.877 37.4318L135.831 37.1932C135.922 37.5455 136.094 37.8097 136.347 37.9858C136.603 38.1619 136.936 38.25 137.348 38.25C137.817 38.25 138.189 38.1506 138.465 37.9517C138.743 37.75 138.882 37.5085 138.882 37.2273C138.882 37 138.803 36.8097 138.644 36.6562C138.485 36.5 138.24 36.3835 137.911 36.3068L136.82 36.0511C136.221 35.9091 135.78 35.6889 135.499 35.3906C135.221 35.0895 135.081 34.7131 135.081 34.2614C135.081 33.892 135.185 33.5653 135.392 33.2812C135.603 32.9972 135.888 32.7741 136.249 32.6122C136.613 32.4503 137.025 32.3693 137.485 32.3693C138.132 32.3693 138.641 32.5114 139.01 32.7955C139.382 33.0795 139.647 33.4545 139.803 33.9205ZM145.561 36.3239V32.4545H146.567V39H145.561V37.892H145.493C145.339 38.2244 145.101 38.5071 144.777 38.7401C144.453 38.9702 144.044 39.0852 143.55 39.0852C143.141 39.0852 142.777 38.9957 142.459 38.8168C142.141 38.6349 141.891 38.3622 141.709 37.9986C141.527 37.6321 141.436 37.1705 141.436 36.6136V32.4545H142.442V36.5455C142.442 37.0227 142.575 37.4034 142.842 37.6875C143.112 37.9716 143.456 38.1136 143.874 38.1136C144.124 38.1136 144.378 38.0497 144.636 37.9219C144.898 37.794 145.116 37.598 145.293 37.3338C145.472 37.0696 145.561 36.733 145.561 36.3239ZM148.409 39V32.4545H149.38V33.4432H149.449C149.568 33.1193 149.784 32.8565 150.096 32.6548C150.409 32.4531 150.761 32.3523 151.153 32.3523C151.227 32.3523 151.319 32.3537 151.43 32.3565C151.541 32.3594 151.625 32.3636 151.681 32.3693V33.392C151.647 33.3835 151.569 33.3707 151.447 33.3537C151.328 33.3338 151.201 33.3239 151.068 33.3239C150.75 33.3239 150.466 33.3906 150.216 33.5241C149.968 33.6548 149.772 33.8366 149.627 34.0696C149.485 34.2997 149.414 34.5625 149.414 34.858V39H148.409ZM155.419 39.1364C154.788 39.1364 154.244 38.9972 153.787 38.7188C153.332 38.4375 152.981 38.0455 152.734 37.5426C152.49 37.0369 152.368 36.4489 152.368 35.7784C152.368 35.108 152.49 34.517 152.734 34.0057C152.981 33.4915 153.325 33.0909 153.765 32.804C154.208 32.5142 154.725 32.3693 155.316 32.3693C155.657 32.3693 155.994 32.4261 156.326 32.5398C156.659 32.6534 156.961 32.8381 157.234 33.0938C157.507 33.3466 157.724 33.6818 157.886 34.0994C158.048 34.517 158.129 35.0312 158.129 35.642V36.0682H153.083V35.1989H157.106C157.106 34.8295 157.032 34.5 156.885 34.2102C156.74 33.9205 156.532 33.6918 156.262 33.5241C155.995 33.3565 155.68 33.2727 155.316 33.2727C154.916 33.2727 154.569 33.3722 154.277 33.571C153.987 33.767 153.764 34.0227 153.608 34.3381C153.451 34.6534 153.373 34.9915 153.373 35.3523V35.9318C153.373 36.4261 153.458 36.8452 153.629 37.1889C153.802 37.5298 154.042 37.7898 154.349 37.9688C154.656 38.1449 155.012 38.233 155.419 38.233C155.683 38.233 155.922 38.196 156.135 38.1222C156.35 38.0455 156.537 37.9318 156.693 37.7812C156.849 37.6278 156.97 37.4375 157.055 37.2102L158.027 37.483C157.924 37.8125 157.752 38.1023 157.511 38.3523C157.27 38.5994 156.971 38.7926 156.616 38.9318C156.261 39.0682 155.862 39.1364 155.419 39.1364ZM163.681 41.4545C163.511 41.4545 163.359 41.4403 163.225 41.4119C163.092 41.3864 163 41.3608 162.949 41.3352L163.204 40.4489C163.449 40.5114 163.664 40.5341 163.852 40.517C164.039 40.5 164.206 40.4162 164.35 40.2656C164.498 40.1179 164.633 39.8778 164.755 39.5455L164.943 39.0341L162.522 32.4545H163.613L165.42 37.6705H165.488L167.295 32.4545H168.386L165.608 39.9545C165.483 40.2926 165.328 40.5724 165.143 40.794C164.958 41.0185 164.744 41.1847 164.5 41.2926C164.258 41.4006 163.985 41.4545 163.681 41.4545ZM172.138 39.1364C171.547 39.1364 171.029 38.9957 170.583 38.7145C170.14 38.4332 169.793 38.0398 169.543 37.5341C169.296 37.0284 169.172 36.4375 169.172 35.7614C169.172 35.0795 169.296 34.4844 169.543 33.9759C169.793 33.4673 170.14 33.0724 170.583 32.7912C171.029 32.5099 171.547 32.3693 172.138 32.3693C172.729 32.3693 173.246 32.5099 173.689 32.7912C174.135 33.0724 174.482 33.4673 174.729 33.9759C174.979 34.4844 175.104 35.0795 175.104 35.7614C175.104 36.4375 174.979 37.0284 174.729 37.5341C174.482 38.0398 174.135 38.4332 173.689 38.7145C173.246 38.9957 172.729 39.1364 172.138 39.1364ZM172.138 38.233C172.587 38.233 172.956 38.1179 173.246 37.8878C173.536 37.6577 173.75 37.3551 173.89 36.9801C174.029 36.6051 174.098 36.1989 174.098 35.7614C174.098 35.3239 174.029 34.9162 173.89 34.5384C173.75 34.1605 173.536 33.8551 173.246 33.6222C172.956 33.3892 172.587 33.2727 172.138 33.2727C171.689 33.2727 171.32 33.3892 171.03 33.6222C170.74 33.8551 170.526 34.1605 170.387 34.5384C170.248 34.9162 170.178 35.3239 170.178 35.7614C170.178 36.1989 170.248 36.6051 170.387 36.9801C170.526 37.3551 170.74 37.6577 171.03 37.8878C171.32 38.1179 171.689 38.233 172.138 38.233ZM180.764 36.3239V32.4545H181.77V39H180.764V37.892H180.696C180.543 38.2244 180.304 38.5071 179.98 38.7401C179.656 38.9702 179.247 39.0852 178.753 39.0852C178.344 39.0852 177.98 38.9957 177.662 38.8168C177.344 38.6349 177.094 38.3622 176.912 37.9986C176.73 37.6321 176.639 37.1705 176.639 36.6136V32.4545H177.645V36.5455C177.645 37.0227 177.778 37.4034 178.045 37.6875C178.315 37.9716 178.659 38.1136 179.077 38.1136C179.327 38.1136 179.581 38.0497 179.839 37.9219C180.101 37.794 180.32 37.598 180.496 37.3338C180.675 37.0696 180.764 36.733 180.764 36.3239ZM183.612 39V32.4545H184.583V33.4432H184.652C184.771 33.1193 184.987 32.8565 185.299 32.6548C185.612 32.4531 185.964 32.3523 186.356 32.3523C186.43 32.3523 186.522 32.3537 186.633 32.3565C186.744 32.3594 186.828 32.3636 186.885 32.3693V33.392C186.85 33.3835 186.772 33.3707 186.65 33.3537C186.531 33.3338 186.404 33.3239 186.271 33.3239C185.953 33.3239 185.669 33.3906 185.419 33.5241C185.172 33.6548 184.975 33.8366 184.831 34.0696C184.689 34.2997 184.618 34.5625 184.618 34.858V39H183.612ZM194.366 32.4545V33.3068H190.838V32.4545H194.366ZM191.895 39V31.5511C191.895 31.1761 191.983 30.8636 192.159 30.6136C192.335 30.3636 192.564 30.1761 192.845 30.0511C193.126 29.9261 193.423 29.8636 193.736 29.8636C193.983 29.8636 194.185 29.8835 194.341 29.9233C194.497 29.9631 194.614 30 194.69 30.0341L194.401 30.9034C194.349 30.8864 194.278 30.8651 194.188 30.8395C194.099 30.8139 193.983 30.8011 193.838 30.8011C193.506 30.8011 193.266 30.8849 193.118 31.0526C192.973 31.2202 192.901 31.4659 192.901 31.7898V39H191.895ZM195.776 39V32.4545H196.782V39H195.776ZM196.287 31.3636C196.091 31.3636 195.922 31.2969 195.78 31.1634C195.641 31.0298 195.571 30.8693 195.571 30.6818C195.571 30.4943 195.641 30.3338 195.78 30.2003C195.922 30.0668 196.091 30 196.287 30C196.483 30 196.651 30.0668 196.79 30.2003C196.932 30.3338 197.003 30.4943 197.003 30.6818C197.003 30.8693 196.932 31.0298 196.79 31.1634C196.651 31.2969 196.483 31.3636 196.287 31.3636ZM199.629 35.0625V39H198.624V32.4545H199.595V33.4773H199.68C199.834 33.1449 200.067 32.8778 200.379 32.6761C200.692 32.4716 201.095 32.3693 201.589 32.3693C202.033 32.3693 202.42 32.4602 202.753 32.642C203.085 32.821 203.344 33.0938 203.528 33.4602C203.713 33.8239 203.805 34.2841 203.805 34.8409V39H202.8V34.9091C202.8 34.3949 202.666 33.9943 202.399 33.7074C202.132 33.4176 201.766 33.2727 201.3 33.2727C200.979 33.2727 200.692 33.3423 200.439 33.4815C200.189 33.6207 199.991 33.8239 199.847 34.0909C199.702 34.358 199.629 34.6818 199.629 35.0625ZM208.285 41.5909C207.799 41.5909 207.382 41.5284 207.032 41.4034C206.683 41.2812 206.392 41.1193 206.159 40.9176C205.929 40.7188 205.745 40.5057 205.609 40.2784L206.41 39.7159C206.501 39.8352 206.616 39.9716 206.755 40.125C206.895 40.2812 207.085 40.4162 207.326 40.5298C207.571 40.6463 207.89 40.7045 208.285 40.7045C208.814 40.7045 209.25 40.5767 209.593 40.321C209.937 40.0653 210.109 39.6648 210.109 39.1193V37.7898H210.024C209.95 37.9091 209.845 38.0568 209.708 38.233C209.575 38.4062 209.382 38.5611 209.129 38.6974C208.879 38.831 208.541 38.8977 208.115 38.8977C207.586 38.8977 207.112 38.7727 206.691 38.5227C206.274 38.2727 205.943 37.9091 205.699 37.4318C205.457 36.9545 205.336 36.375 205.336 35.6932C205.336 35.0227 205.454 34.4389 205.69 33.9418C205.926 33.4418 206.254 33.0554 206.674 32.7827C207.095 32.5071 207.581 32.3693 208.132 32.3693C208.558 32.3693 208.896 32.4403 209.146 32.5824C209.399 32.7216 209.592 32.8807 209.725 33.0597C209.862 33.2358 209.967 33.3807 210.041 33.4943H210.143V32.4545H211.115V39.1875C211.115 39.75 210.987 40.2074 210.731 40.5597C210.478 40.9148 210.137 41.1747 209.708 41.3395C209.282 41.5071 208.808 41.5909 208.285 41.5909ZM208.251 37.9943C208.654 37.9943 208.995 37.902 209.274 37.7173C209.552 37.5327 209.764 37.267 209.909 36.9205C210.054 36.5739 210.126 36.1591 210.126 35.6761C210.126 35.2045 210.055 34.7884 209.913 34.4276C209.771 34.0668 209.561 33.7841 209.282 33.5795C209.004 33.375 208.66 33.2727 208.251 33.2727C207.825 33.2727 207.47 33.3807 207.186 33.5966C206.904 33.8125 206.693 34.1023 206.551 34.4659C206.412 34.8295 206.342 35.233 206.342 35.6761C206.342 36.1307 206.413 36.5327 206.555 36.8821C206.7 37.2287 206.913 37.5014 207.194 37.7003C207.478 37.8963 207.831 37.9943 208.251 37.9943ZM215.7 39.1364C215.069 39.1364 214.525 38.9972 214.068 38.7188C213.613 38.4375 213.262 38.0455 213.015 37.5426C212.771 37.0369 212.649 36.4489 212.649 35.7784C212.649 35.108 212.771 34.517 213.015 34.0057C213.262 33.4915 213.606 33.0909 214.047 32.804C214.49 32.5142 215.007 32.3693 215.598 32.3693C215.939 32.3693 216.275 32.4261 216.608 32.5398C216.94 32.6534 217.243 32.8381 217.515 33.0938C217.788 33.3466 218.005 33.6818 218.167 34.0994C218.329 34.517 218.41 35.0312 218.41 35.642V36.0682H213.365V35.1989H217.387C217.387 34.8295 217.314 34.5 217.166 34.2102C217.021 33.9205 216.814 33.6918 216.544 33.5241C216.277 33.3565 215.961 33.2727 215.598 33.2727C215.197 33.2727 214.85 33.3722 214.558 33.571C214.268 33.767 214.045 34.0227 213.889 34.3381C213.733 34.6534 213.654 34.9915 213.654 35.3523V35.9318C213.654 36.4261 213.74 36.8452 213.91 37.1889C214.083 37.5298 214.324 37.7898 214.63 37.9688C214.937 38.1449 215.294 38.233 215.7 38.233C215.964 38.233 216.203 38.196 216.416 38.1222C216.632 38.0455 216.818 37.9318 216.974 37.7812C217.13 37.6278 217.251 37.4375 217.336 37.2102L218.308 37.483C218.206 37.8125 218.034 38.1023 217.792 38.3523C217.551 38.5994 217.252 38.7926 216.897 38.9318C216.542 39.0682 216.143 39.1364 215.7 39.1364ZM219.94 39V32.4545H220.912V33.4432H220.98C221.099 33.1193 221.315 32.8565 221.627 32.6548C221.94 32.4531 222.292 32.3523 222.684 32.3523C222.758 32.3523 222.85 32.3537 222.961 32.3565C223.072 32.3594 223.156 32.3636 223.213 32.3693V33.392C223.179 33.3835 223.1 33.3707 222.978 33.3537C222.859 33.3338 222.733 33.3239 222.599 33.3239C222.281 33.3239 221.997 33.3906 221.747 33.5241C221.5 33.6548 221.304 33.8366 221.159 34.0696C221.017 34.2997 220.946 34.5625 220.946 34.858V39H219.94ZM230.439 39.1364C229.825 39.1364 229.297 38.9915 228.854 38.7017C228.411 38.4119 228.07 38.0128 227.831 37.5043C227.592 36.9957 227.473 36.4148 227.473 35.7614C227.473 35.0966 227.595 34.5099 227.839 34.0014C228.087 33.4901 228.43 33.0909 228.871 32.804C229.314 32.5142 229.831 32.3693 230.422 32.3693C230.882 32.3693 231.297 32.4545 231.666 32.625C232.036 32.7955 232.338 33.0341 232.574 33.3409C232.81 33.6477 232.956 34.0057 233.013 34.4148H232.007C231.93 34.1165 231.76 33.8523 231.496 33.6222C231.234 33.3892 230.882 33.2727 230.439 33.2727C230.047 33.2727 229.703 33.375 229.408 33.5795C229.115 33.7812 228.886 34.0668 228.722 34.4361C228.56 34.8026 228.479 35.233 228.479 35.7273C228.479 36.233 228.558 36.6733 228.717 37.0483C228.879 37.4233 229.107 37.7145 229.399 37.9219C229.695 38.1293 230.041 38.233 230.439 38.233C230.7 38.233 230.938 38.1875 231.151 38.0966C231.364 38.0057 231.544 37.875 231.692 37.7045C231.839 37.5341 231.945 37.3295 232.007 37.0909H233.013C232.956 37.4773 232.815 37.8253 232.591 38.1349C232.369 38.4418 232.075 38.6861 231.709 38.8679C231.345 39.0469 230.922 39.1364 230.439 39.1364ZM237.142 39.1364C236.551 39.1364 236.033 38.9957 235.587 38.7145C235.143 38.4332 234.797 38.0398 234.547 37.5341C234.3 37.0284 234.176 36.4375 234.176 35.7614C234.176 35.0795 234.3 34.4844 234.547 33.9759C234.797 33.4673 235.143 33.0724 235.587 32.7912C236.033 32.5099 236.551 32.3693 237.142 32.3693C237.733 32.3693 238.25 32.5099 238.693 32.7912C239.139 33.0724 239.486 33.4673 239.733 33.9759C239.983 34.4844 240.108 35.0795 240.108 35.7614C240.108 36.4375 239.983 37.0284 239.733 37.5341C239.486 38.0398 239.139 38.4332 238.693 38.7145C238.25 38.9957 237.733 39.1364 237.142 39.1364ZM237.142 38.233C237.591 38.233 237.96 38.1179 238.25 37.8878C238.54 37.6577 238.754 37.3551 238.893 36.9801C239.033 36.6051 239.102 36.1989 239.102 35.7614C239.102 35.3239 239.033 34.9162 238.893 34.5384C238.754 34.1605 238.54 33.8551 238.25 33.6222C237.96 33.3892 237.591 33.2727 237.142 33.2727C236.693 33.2727 236.324 33.3892 236.034 33.6222C235.744 33.8551 235.53 34.1605 235.391 34.5384C235.251 34.9162 235.182 35.3239 235.182 35.7614C235.182 36.1989 235.251 36.6051 235.391 36.9801C235.53 37.3551 235.744 37.6577 236.034 37.8878C236.324 38.1179 236.693 38.233 237.142 38.233ZM246.761 32.4545L244.341 39H243.318L240.897 32.4545H241.988L243.795 37.6705H243.863L245.67 32.4545H246.761ZM250.598 39.1364C249.968 39.1364 249.424 38.9972 248.966 38.7188C248.512 38.4375 248.161 38.0455 247.914 37.5426C247.669 37.0369 247.547 36.4489 247.547 35.7784C247.547 35.108 247.669 34.517 247.914 34.0057C248.161 33.4915 248.505 33.0909 248.945 32.804C249.388 32.5142 249.905 32.3693 250.496 32.3693C250.837 32.3693 251.174 32.4261 251.506 32.5398C251.838 32.6534 252.141 32.8381 252.414 33.0938C252.686 33.3466 252.904 33.6818 253.066 34.0994C253.228 34.517 253.309 35.0312 253.309 35.642V36.0682H248.263V35.1989H252.286C252.286 34.8295 252.212 34.5 252.064 34.2102C251.919 33.9205 251.712 33.6918 251.442 33.5241C251.175 33.3565 250.86 33.2727 250.496 33.2727C250.096 33.2727 249.749 33.3722 249.456 33.571C249.167 33.767 248.944 34.0227 248.787 34.3381C248.631 34.6534 248.553 34.9915 248.553 35.3523V35.9318C248.553 36.4261 248.638 36.8452 248.809 37.1889C248.982 37.5298 249.222 37.7898 249.529 37.9688C249.836 38.1449 250.192 38.233 250.598 38.233C250.863 38.233 251.101 38.196 251.314 38.1222C251.53 38.0455 251.716 37.9318 251.873 37.7812C252.029 37.6278 252.15 37.4375 252.235 37.2102L253.206 37.483C253.104 37.8125 252.932 38.1023 252.691 38.3523C252.449 38.5994 252.151 38.7926 251.796 38.9318C251.441 39.0682 251.042 39.1364 250.598 39.1364ZM254.838 39V32.4545H255.81V33.4432H255.878C255.998 33.1193 256.213 32.8565 256.526 32.6548C256.838 32.4531 257.191 32.3523 257.583 32.3523C257.657 32.3523 257.749 32.3537 257.86 32.3565C257.971 32.3594 258.054 32.3636 258.111 32.3693V33.392C258.077 33.3835 257.999 33.3707 257.877 33.3537C257.757 33.3338 257.631 33.3239 257.498 33.3239C257.179 33.3239 256.895 33.3906 256.645 33.5241C256.398 33.6548 256.202 33.8366 256.057 34.0696C255.915 34.2997 255.844 34.5625 255.844 34.858V39H254.838ZM263.94 33.9205L263.036 34.1761C262.979 34.0256 262.896 33.8793 262.785 33.7372C262.677 33.5923 262.529 33.473 262.342 33.3793C262.154 33.2855 261.914 33.2386 261.621 33.2386C261.221 33.2386 260.887 33.331 260.62 33.5156C260.356 33.6974 260.224 33.929 260.224 34.2102C260.224 34.4602 260.315 34.6577 260.496 34.8026C260.678 34.9474 260.962 35.0682 261.349 35.1648L262.32 35.4034C262.906 35.5455 263.342 35.7628 263.629 36.0554C263.915 36.3452 264.059 36.7187 264.059 37.1761C264.059 37.5511 263.951 37.8864 263.735 38.1818C263.522 38.4773 263.224 38.7102 262.84 38.8807C262.457 39.0511 262.011 39.1364 261.502 39.1364C260.835 39.1364 260.282 38.9915 259.844 38.7017C259.407 38.4119 259.13 37.9886 259.013 37.4318L259.968 37.1932C260.059 37.5455 260.231 37.8097 260.484 37.9858C260.739 38.1619 261.073 38.25 261.485 38.25C261.954 38.25 262.326 38.1506 262.602 37.9517C262.88 37.75 263.019 37.5085 263.019 37.2273C263.019 37 262.94 36.8097 262.781 36.6562C262.621 36.5 262.377 36.3835 262.048 36.3068L260.957 36.0511C260.357 35.9091 259.917 35.6889 259.636 35.3906C259.357 35.0895 259.218 34.7131 259.218 34.2614C259.218 33.892 259.322 33.5653 259.529 33.2812C259.739 32.9972 260.025 32.7741 260.386 32.6122C260.749 32.4503 261.161 32.3693 261.621 32.3693C262.269 32.3693 262.778 32.5114 263.147 32.7955C263.519 33.0795 263.783 33.4545 263.94 33.9205ZM271.794 32.4545V33.3068H268.402V32.4545H271.794ZM269.391 30.8864H270.397V37.125C270.397 37.4091 270.438 37.6222 270.52 37.7642C270.605 37.9034 270.713 37.9972 270.844 38.0455C270.978 38.0909 271.118 38.1136 271.266 38.1136C271.377 38.1136 271.468 38.108 271.539 38.0966C271.61 38.0824 271.667 38.071 271.709 38.0625L271.914 38.9659C271.846 38.9915 271.75 39.017 271.628 39.0426C271.506 39.071 271.351 39.0852 271.164 39.0852C270.88 39.0852 270.601 39.0241 270.328 38.902C270.059 38.7798 269.834 38.5938 269.655 38.3438C269.479 38.0938 269.391 37.7784 269.391 37.3977V30.8864ZM274.453 35.0625V39H273.448V30.2727H274.453V33.4773H274.539C274.692 33.1392 274.922 32.8707 275.229 32.6719C275.539 32.4702 275.951 32.3693 276.465 32.3693C276.911 32.3693 277.301 32.4588 277.637 32.6378C277.972 32.8139 278.232 33.0852 278.417 33.4517C278.604 33.8153 278.698 34.2784 278.698 34.8409V39H277.692V34.9091C277.692 34.3892 277.557 33.9872 277.287 33.7031C277.02 33.4162 276.65 33.2727 276.175 33.2727C275.846 33.2727 275.55 33.3423 275.289 33.4815C275.03 33.6207 274.826 33.8239 274.675 34.0909C274.527 34.358 274.453 34.6818 274.453 35.0625ZM283.282 39.1364C282.651 39.1364 282.107 38.9972 281.65 38.7188C281.195 38.4375 280.844 38.0455 280.597 37.5426C280.353 37.0369 280.231 36.4489 280.231 35.7784C280.231 35.108 280.353 34.517 280.597 34.0057C280.844 33.4915 281.188 33.0909 281.629 32.804C282.072 32.5142 282.589 32.3693 283.18 32.3693C283.521 32.3693 283.857 32.4261 284.19 32.5398C284.522 32.6534 284.825 32.8381 285.097 33.0938C285.37 33.3466 285.587 33.6818 285.749 34.0994C285.911 34.517 285.992 35.0312 285.992 35.642V36.0682H280.947V35.1989H284.969C284.969 34.8295 284.896 34.5 284.748 34.2102C284.603 33.9205 284.396 33.6918 284.126 33.5241C283.859 33.3565 283.543 33.2727 283.18 33.2727C282.779 33.2727 282.433 33.3722 282.14 33.571C281.85 33.767 281.627 34.0227 281.471 34.3381C281.315 34.6534 281.237 34.9915 281.237 35.3523V35.9318C281.237 36.4261 281.322 36.8452 281.492 37.1889C281.665 37.5298 281.906 37.7898 282.212 37.9688C282.519 38.1449 282.876 38.233 283.282 38.233C283.546 38.233 283.785 38.196 283.998 38.1222C284.214 38.0455 284.4 37.9318 284.556 37.7812C284.712 37.6278 284.833 37.4375 284.918 37.2102L285.89 37.483C285.788 37.8125 285.616 38.1023 285.374 38.3523C285.133 38.5994 284.835 38.7926 284.479 38.9318C284.124 39.0682 283.725 39.1364 283.282 39.1364ZM293.641 39.1364C293.011 39.1364 292.467 38.9972 292.009 38.7188C291.555 38.4375 291.204 38.0455 290.957 37.5426C290.712 37.0369 290.59 36.4489 290.59 35.7784C290.59 35.108 290.712 34.517 290.957 34.0057C291.204 33.4915 291.548 33.0909 291.988 32.804C292.431 32.5142 292.948 32.3693 293.539 32.3693C293.88 32.3693 294.217 32.4261 294.549 32.5398C294.881 32.6534 295.184 32.8381 295.457 33.0938C295.729 33.3466 295.947 33.6818 296.109 34.0994C296.271 34.517 296.352 35.0312 296.352 35.642V36.0682H291.306V35.1989H295.329C295.329 34.8295 295.255 34.5 295.107 34.2102C294.962 33.9205 294.755 33.6918 294.485 33.5241C294.218 33.3565 293.903 33.2727 293.539 33.2727C293.138 33.2727 292.792 33.3722 292.499 33.571C292.21 33.767 291.987 34.0227 291.83 34.3381C291.674 34.6534 291.596 34.9915 291.596 35.3523V35.9318C291.596 36.4261 291.681 36.8452 291.852 37.1889C292.025 37.5298 292.265 37.7898 292.572 37.9688C292.879 38.1449 293.235 38.233 293.641 38.233C293.906 38.233 294.144 38.196 294.357 38.1222C294.573 38.0455 294.759 37.9318 294.915 37.7812C295.072 37.6278 295.192 37.4375 295.278 37.2102L296.249 37.483C296.147 37.8125 295.975 38.1023 295.734 38.3523C295.492 38.5994 295.194 38.7926 294.839 38.9318C294.484 39.0682 294.085 39.1364 293.641 39.1364ZM298.887 35.0625V39H297.881V32.4545H298.853V33.4773H298.938C299.092 33.1449 299.325 32.8778 299.637 32.6761C299.95 32.4716 300.353 32.3693 300.847 32.3693C301.29 32.3693 301.678 32.4602 302.011 32.642C302.343 32.821 302.602 33.0938 302.786 33.4602C302.971 33.8239 303.063 34.2841 303.063 34.8409V39H302.058V34.9091C302.058 34.3949 301.924 33.9943 301.657 33.7074C301.39 33.4176 301.023 33.2727 300.558 33.2727C300.237 33.2727 299.95 33.3423 299.697 33.4815C299.447 33.6207 299.249 33.8239 299.104 34.0909C298.96 34.358 298.887 34.6818 298.887 35.0625ZM307.748 32.4545V33.3068H304.355V32.4545H307.748ZM305.344 30.8864H306.35V37.125C306.35 37.4091 306.391 37.6222 306.473 37.7642C306.559 37.9034 306.667 37.9972 306.797 38.0455C306.931 38.0909 307.071 38.1136 307.219 38.1136C307.33 38.1136 307.421 38.108 307.492 38.0966C307.563 38.0824 307.62 38.071 307.662 38.0625L307.867 38.9659C307.799 38.9915 307.703 39.017 307.581 39.0426C307.459 39.071 307.304 39.0852 307.117 39.0852C306.833 39.0852 306.554 39.0241 306.282 38.902C306.012 38.7798 305.787 38.5938 305.608 38.3438C305.432 38.0938 305.344 37.7784 305.344 37.3977V30.8864ZM309.26 39V32.4545H310.266V39H309.26ZM309.772 31.3636C309.576 31.3636 309.407 31.2969 309.265 31.1634C309.125 31.0298 309.056 30.8693 309.056 30.6818C309.056 30.4943 309.125 30.3338 309.265 30.2003C309.407 30.0668 309.576 30 309.772 30C309.968 30 310.135 30.0668 310.275 30.2003C310.417 30.3338 310.488 30.4943 310.488 30.6818C310.488 30.8693 310.417 31.0298 310.275 31.1634C310.135 31.2969 309.968 31.3636 309.772 31.3636ZM312.108 39V32.4545H313.08V33.4432H313.148C313.267 33.1193 313.483 32.8565 313.795 32.6548C314.108 32.4531 314.46 32.3523 314.852 32.3523C314.926 32.3523 315.018 32.3537 315.129 32.3565C315.24 32.3594 315.324 32.3636 315.381 32.3693V33.392C315.347 33.3835 315.268 33.3707 315.146 33.3537C315.027 33.3338 314.901 33.3239 314.767 33.3239C314.449 33.3239 314.165 33.3906 313.915 33.5241C313.668 33.6548 313.472 33.8366 313.327 34.0696C313.185 34.2997 313.114 34.5625 313.114 34.858V39H312.108ZM319.118 39.1364C318.487 39.1364 317.943 38.9972 317.486 38.7188C317.031 38.4375 316.68 38.0455 316.433 37.5426C316.189 37.0369 316.067 36.4489 316.067 35.7784C316.067 35.108 316.189 34.517 316.433 34.0057C316.68 33.4915 317.024 33.0909 317.464 32.804C317.908 32.5142 318.425 32.3693 319.016 32.3693C319.357 32.3693 319.693 32.4261 320.026 32.5398C320.358 32.6534 320.661 32.8381 320.933 33.0938C321.206 33.3466 321.423 33.6818 321.585 34.0994C321.747 34.517 321.828 35.0312 321.828 35.642V36.0682H316.783V35.1989H320.805C320.805 34.8295 320.732 34.5 320.584 34.2102C320.439 33.9205 320.232 33.6918 319.962 33.5241C319.695 33.3565 319.379 33.2727 319.016 33.2727C318.615 33.2727 318.268 33.3722 317.976 33.571C317.686 33.767 317.463 34.0227 317.307 34.3381C317.151 34.6534 317.072 34.9915 317.072 35.3523V35.9318C317.072 36.4261 317.158 36.8452 317.328 37.1889C317.501 37.5298 317.741 37.7898 318.048 37.9688C318.355 38.1449 318.712 38.233 319.118 38.233C319.382 38.233 319.621 38.196 319.834 38.1222C320.05 38.0455 320.236 37.9318 320.392 37.7812C320.548 37.6278 320.669 37.4375 320.754 37.2102L321.726 37.483C321.624 37.8125 321.452 38.1023 321.21 38.3523C320.969 38.5994 320.67 38.7926 320.315 38.9318C319.96 39.0682 319.561 39.1364 319.118 39.1364ZM31.5568 51.9205L30.6534 52.1761C30.5966 52.0256 30.5128 51.8793 30.402 51.7372C30.294 51.5923 30.1463 51.473 29.9588 51.3793C29.7713 51.2855 29.5312 51.2386 29.2386 51.2386C28.8381 51.2386 28.5043 51.331 28.2372 51.5156C27.973 51.6974 27.8409 51.929 27.8409 52.2102C27.8409 52.4602 27.9318 52.6577 28.1136 52.8026C28.2955 52.9474 28.5795 53.0682 28.9659 53.1648L29.9375 53.4034C30.5227 53.5455 30.9588 53.7628 31.2457 54.0554C31.5327 54.3452 31.6761 54.7187 31.6761 55.1761C31.6761 55.5511 31.5682 55.8864 31.3523 56.1818C31.1392 56.4773 30.8409 56.7102 30.4574 56.8807C30.0739 57.0511 29.6278 57.1364 29.1193 57.1364C28.4517 57.1364 27.8991 56.9915 27.4616 56.7017C27.0241 56.4119 26.7472 55.9886 26.6307 55.4318L27.5852 55.1932C27.6761 55.5455 27.848 55.8097 28.1009 55.9858C28.3565 56.1619 28.6903 56.25 29.1023 56.25C29.571 56.25 29.9432 56.1506 30.2188 55.9517C30.4972 55.75 30.6364 55.5085 30.6364 55.2273C30.6364 55 30.5568 54.8097 30.3977 54.6562C30.2386 54.5 29.9943 54.3835 29.6648 54.3068L28.5739 54.0511C27.9744 53.9091 27.5341 53.6889 27.2528 53.3906C26.9744 53.0895 26.8352 52.7131 26.8352 52.2614C26.8352 51.892 26.9389 51.5653 27.1463 51.2812C27.3565 50.9972 27.642 50.7741 28.0028 50.6122C28.3665 50.4503 28.7784 50.3693 29.2386 50.3693C29.8864 50.3693 30.3949 50.5114 30.7642 50.7955C31.1364 51.0795 31.4006 51.4545 31.5568 51.9205ZM35.8491 57.1364C35.2354 57.1364 34.707 56.9915 34.2638 56.7017C33.8207 56.4119 33.4798 56.0128 33.2411 55.5043C33.0025 54.9957 32.8832 54.4148 32.8832 53.7614C32.8832 53.0966 33.0053 52.5099 33.2496 52.0014C33.4968 51.4901 33.8406 51.0909 34.2809 50.804C34.7241 50.5142 35.2411 50.3693 35.832 50.3693C36.2923 50.3693 36.707 50.4545 37.0763 50.625C37.4457 50.7955 37.7482 51.0341 37.984 51.3409C38.2198 51.6477 38.3661 52.0057 38.4229 52.4148H37.4173C37.3406 52.1165 37.1701 51.8523 36.9059 51.6222C36.6445 51.3892 36.2923 51.2727 35.8491 51.2727C35.457 51.2727 35.1133 51.375 34.8178 51.5795C34.5252 51.7812 34.2965 52.0668 34.1317 52.4361C33.9698 52.8026 33.8888 53.233 33.8888 53.7273C33.8888 54.233 33.9684 54.6733 34.1275 55.0483C34.2894 55.4233 34.5167 55.7145 34.8093 55.9219C35.1048 56.1293 35.4513 56.233 35.8491 56.233C36.1104 56.233 36.3477 56.1875 36.5607 56.0966C36.7738 56.0057 36.9542 55.875 37.1019 55.7045C37.2496 55.5341 37.3548 55.3295 37.4173 55.0909H38.4229C38.3661 55.4773 38.2255 55.8253 38.0011 56.1349C37.7795 56.4418 37.4854 56.6861 37.119 56.8679C36.7553 57.0469 36.332 57.1364 35.8491 57.1364ZM41.8192 57.1534C41.4045 57.1534 41.0281 57.0753 40.69 56.919C40.3519 56.7599 40.0835 56.5312 39.8846 56.233C39.6857 55.9318 39.5863 55.5682 39.5863 55.142C39.5863 54.767 39.6602 54.4631 39.8079 54.2301C39.9556 53.9943 40.1531 53.8097 40.4002 53.6761C40.6474 53.5426 40.9201 53.4432 41.2184 53.3778C41.5195 53.3097 41.8221 53.2557 42.1261 53.2159C42.5238 53.1648 42.8462 53.1264 43.0934 53.1009C43.3434 53.0724 43.5252 53.0256 43.6388 52.9602C43.7553 52.8949 43.8136 52.7812 43.8136 52.6193V52.5852C43.8136 52.1648 43.6985 51.8381 43.4684 51.6051C43.2411 51.3722 42.896 51.2557 42.4329 51.2557C41.9528 51.2557 41.5763 51.3608 41.3036 51.571C41.0309 51.7812 40.8391 52.0057 40.7283 52.2443L39.7738 51.9034C39.9442 51.5057 40.1715 51.196 40.4556 50.9744C40.7425 50.75 41.055 50.5937 41.3931 50.5057C41.734 50.4148 42.0692 50.3693 42.3988 50.3693C42.609 50.3693 42.8505 50.3949 43.1232 50.446C43.3988 50.4943 43.6644 50.5952 43.9201 50.7486C44.1786 50.902 44.3931 51.1335 44.5636 51.4432C44.734 51.7528 44.8192 52.1676 44.8192 52.6875V57H43.8136V56.1136H43.7624C43.6942 56.2557 43.5806 56.4077 43.4215 56.5696C43.2624 56.7315 43.0508 56.8693 42.7866 56.983C42.5224 57.0966 42.1999 57.1534 41.8192 57.1534ZM41.9727 56.25C42.3704 56.25 42.7056 56.1719 42.9783 56.0156C43.2539 55.8594 43.4613 55.6577 43.6005 55.4105C43.7425 55.1634 43.8136 54.9034 43.8136 54.6307V53.7102C43.771 53.7614 43.6772 53.8082 43.5323 53.8509C43.3903 53.8906 43.2255 53.9261 43.038 53.9574C42.8533 53.9858 42.6729 54.0114 42.4968 54.0341C42.3235 54.054 42.1829 54.071 42.0749 54.0852C41.8136 54.1193 41.5692 54.1747 41.342 54.2514C41.1175 54.3253 40.9357 54.4375 40.7965 54.5881C40.6602 54.7358 40.592 54.9375 40.592 55.1932C40.592 55.5426 40.7212 55.8068 40.9798 55.9858C41.2411 56.1619 41.5721 56.25 41.9727 56.25ZM47.6605 53.0625V57H46.6548V50.4545H47.6264V51.4773H47.7116C47.8651 51.1449 48.098 50.8778 48.4105 50.6761C48.723 50.4716 49.1264 50.3693 49.6207 50.3693C50.0639 50.3693 50.4517 50.4602 50.7841 50.642C51.1165 50.821 51.375 51.0938 51.5597 51.4602C51.7443 51.8239 51.8366 52.2841 51.8366 52.8409V57H50.831V52.9091C50.831 52.3949 50.6974 51.9943 50.4304 51.7074C50.1634 51.4176 49.7969 51.2727 49.331 51.2727C49.0099 51.2727 48.723 51.3423 48.4702 51.4815C48.2202 51.6207 48.0227 51.8239 47.8778 52.0909C47.733 52.358 47.6605 52.6818 47.6605 53.0625ZM54.68 53.0625V57H53.6744V50.4545H54.646V51.4773H54.7312C54.8846 51.1449 55.1175 50.8778 55.43 50.6761C55.7425 50.4716 56.146 50.3693 56.6403 50.3693C57.0835 50.3693 57.4712 50.4602 57.8036 50.642C58.136 50.821 58.3945 51.0938 58.5792 51.4602C58.7638 51.8239 58.8562 52.2841 58.8562 52.8409V57H57.8505V52.9091C57.8505 52.3949 57.717 51.9943 57.4499 51.7074C57.1829 51.4176 56.8164 51.2727 56.3505 51.2727C56.0295 51.2727 55.7425 51.3423 55.4897 51.4815C55.2397 51.6207 55.0423 51.8239 54.8974 52.0909C54.7525 52.358 54.68 52.6818 54.68 53.0625ZM63.4382 57.1364C62.8075 57.1364 62.2635 56.9972 61.8061 56.7188C61.3516 56.4375 61.0007 56.0455 60.7536 55.5426C60.5092 55.0369 60.3871 54.4489 60.3871 53.7784C60.3871 53.108 60.5092 52.517 60.7536 52.0057C61.0007 51.4915 61.3445 51.0909 61.7848 50.804C62.228 50.5142 62.745 50.3693 63.3359 50.3693C63.6768 50.3693 64.0135 50.4261 64.3459 50.5398C64.6783 50.6534 64.9808 50.8381 65.2536 51.0938C65.5263 51.3466 65.7436 51.6818 65.9055 52.0994C66.0675 52.517 66.1484 53.0312 66.1484 53.642V54.0682H61.103V53.1989H65.1257C65.1257 52.8295 65.0518 52.5 64.9041 52.2102C64.7592 51.9205 64.5518 51.6918 64.282 51.5241C64.0149 51.3565 63.6996 51.2727 63.3359 51.2727C62.9354 51.2727 62.5888 51.3722 62.2962 51.571C62.0064 51.767 61.7834 52.0227 61.6271 52.3381C61.4709 52.6534 61.3928 52.9915 61.3928 53.3523V53.9318C61.3928 54.4261 61.478 54.8452 61.6484 55.1889C61.8217 55.5298 62.0618 55.7898 62.3686 55.9688C62.6754 56.1449 63.032 56.233 63.4382 56.233C63.7024 56.233 63.9411 56.196 64.1541 56.1222C64.37 56.0455 64.5561 55.9318 64.7124 55.7812C64.8686 55.6278 64.9893 55.4375 65.0746 55.2102L66.0462 55.483C65.9439 55.8125 65.772 56.1023 65.5305 56.3523C65.2891 56.5994 64.9908 56.7926 64.6357 56.9318C64.2805 57.0682 63.8814 57.1364 63.4382 57.1364ZM67.6783 57V50.4545H68.6499V51.4432H68.718C68.8374 51.1193 69.0533 50.8565 69.3658 50.6548C69.6783 50.4531 70.0305 50.3523 70.4226 50.3523C70.4964 50.3523 70.5888 50.3537 70.6996 50.3565C70.8104 50.3594 70.8942 50.3636 70.951 50.3693V51.392C70.9169 51.3835 70.8388 51.3707 70.7166 51.3537C70.5973 51.3338 70.4709 51.3239 70.3374 51.3239C70.0192 51.3239 69.7351 51.3906 69.4851 51.5241C69.2379 51.6548 69.0419 51.8366 68.897 52.0696C68.755 52.2997 68.6839 52.5625 68.6839 52.858V57H67.6783ZM72.1261 57.0682C71.9158 57.0682 71.7354 56.9929 71.5849 56.8423C71.4343 56.6918 71.359 56.5114 71.359 56.3011C71.359 56.0909 71.4343 55.9105 71.5849 55.7599C71.7354 55.6094 71.9158 55.5341 72.1261 55.5341C72.3363 55.5341 72.5167 55.6094 72.6673 55.7599C72.8178 55.9105 72.8931 56.0909 72.8931 56.3011C72.8931 56.4403 72.8576 56.5682 72.7866 56.6847C72.7184 56.8011 72.6261 56.8949 72.5096 56.9659C72.396 57.0341 72.2681 57.0682 72.1261 57.0682Z" fill="#B54708"/>
<defs>
<clipPath id="clip0_1_17944">
<rect width="14" height="14" fill="white" transform="translate(8 8)"/>
</clipPath>
</defs>
</svg>
