<svg width="344" height="78" viewBox="0 0 344 78" fill="none" xmlns="http://www.w3.org/2000/svg">
<rect x="12" y="0.5" width="49" height="49" rx="24.5" fill="#F6FFFC"/>
<rect x="12" y="0.5" width="49" height="49" rx="24.5" stroke="#E7F5F1"/>
<path d="M26.1781 35.8839C26.2076 35.8342 26.2379 35.7848 26.2688 35.7356C28.5263 32.1469 29.8332 27.9029 29.8332 23.3333C29.8332 19.6514 32.8179 16.6667 36.4998 16.6667C40.1817 16.6667 43.1665 19.6514 43.1665 23.3333C43.1665 25.0284 43.0511 26.6976 42.8277 28.3333M39.2987 39.7394C40.3182 37.7044 41.154 35.5615 41.7845 33.3333M48.1828 35.2199C49.2578 31.4428 49.8333 27.4553 49.8333 23.3333C49.8333 15.9695 43.8638 10 36.5 10C34.0714 10 31.7945 10.6493 29.8333 11.7838M21.5 30.6069C22.5678 28.4089 23.1667 25.9411 23.1667 23.3333C23.1667 20.9048 23.816 18.6278 24.9504 16.6667M36.4998 23.3333C36.4998 29.1953 34.8185 34.6647 31.9118 39.2854" stroke="#90D0BF" stroke-width="3" stroke-linecap="round" stroke-linejoin="round"/>
<path d="M1.23295 73V62.8182H2.46591V71.9062H7.19886V73H1.23295ZM12.1506 73.1591C11.4148 73.1591 10.7801 72.9967 10.2464 72.6719C9.71615 72.3438 9.30682 71.8864 9.01847 71.2997C8.73343 70.7098 8.59091 70.0237 8.59091 69.2415C8.59091 68.4593 8.73343 67.7699 9.01847 67.1733C9.30682 66.5734 9.70786 66.1061 10.2216 65.7713C10.7386 65.4332 11.3419 65.2642 12.0312 65.2642C12.429 65.2642 12.8217 65.3305 13.2095 65.4631C13.5973 65.5956 13.9503 65.8111 14.2685 66.1094C14.5866 66.4044 14.8402 66.7955 15.0291 67.2827C15.218 67.7699 15.3125 68.3698 15.3125 69.0824V69.5795H9.42614V68.5653H14.1193C14.1193 68.1345 14.0331 67.75 13.8608 67.4119C13.6918 67.0739 13.4498 66.8071 13.1349 66.6115C12.8234 66.416 12.4555 66.3182 12.0312 66.3182C11.5639 66.3182 11.1596 66.4342 10.8182 66.6662C10.4801 66.8949 10.2199 67.1932 10.0376 67.5611C9.85535 67.929 9.7642 68.3234 9.7642 68.7443V69.4205C9.7642 69.9972 9.86364 70.486 10.0625 70.8871C10.2647 71.2848 10.5447 71.5881 10.9027 71.7969C11.2607 72.0024 11.6766 72.1051 12.1506 72.1051C12.4588 72.1051 12.7372 72.062 12.9858 71.9759C13.2377 71.8864 13.4548 71.7538 13.6371 71.5781C13.8194 71.3991 13.9602 71.1771 14.0597 70.9119L15.1932 71.2301C15.0739 71.6146 14.8733 71.9527 14.5916 72.2443C14.3099 72.5327 13.9619 72.758 13.5476 72.9205C13.1333 73.0795 12.6676 73.1591 12.1506 73.1591ZM20.4979 65.3636V66.358H16.3814V65.3636H20.4979ZM17.6143 73V64.3097C17.6143 63.8722 17.7171 63.5076 17.9226 63.2159C18.1281 62.9242 18.3949 62.7055 18.723 62.5597C19.0511 62.4138 19.3975 62.3409 19.7621 62.3409C20.0504 62.3409 20.2857 62.3641 20.468 62.4105C20.6503 62.4569 20.7862 62.5 20.8757 62.5398L20.5376 63.554C20.478 63.5341 20.3951 63.5092 20.2891 63.4794C20.1863 63.4496 20.0504 63.4347 19.8814 63.4347C19.4936 63.4347 19.2135 63.5324 19.0412 63.728C18.8722 63.9235 18.7876 64.2102 18.7876 64.5881V73H17.6143ZM25.4632 65.3636V66.358H21.5059V65.3636H25.4632ZM22.6593 63.5341H23.8326V70.8125C23.8326 71.1439 23.8806 71.3925 23.9767 71.5582C24.0762 71.7206 24.2021 71.83 24.3546 71.8864C24.5104 71.9394 24.6744 71.9659 24.8468 71.9659C24.976 71.9659 25.0821 71.9593 25.165 71.946C25.2478 71.9295 25.3141 71.9162 25.3638 71.9062L25.6025 72.9602C25.5229 72.9901 25.4119 73.0199 25.2694 73.0497C25.1268 73.0829 24.9462 73.0994 24.7275 73.0994C24.396 73.0994 24.0712 73.0282 23.753 72.8857C23.4382 72.7431 23.1763 72.526 22.9675 72.2344C22.762 71.9427 22.6593 71.5748 22.6593 71.1307V63.5341ZM34.4867 65.3636V66.358H30.5293V65.3636H34.4867ZM31.6827 63.5341H32.856V70.8125C32.856 71.1439 32.9041 71.3925 33.0002 71.5582C33.0996 71.7206 33.2256 71.83 33.378 71.8864C33.5338 71.9394 33.6979 71.9659 33.8702 71.9659C33.9995 71.9659 34.1055 71.9593 34.1884 71.946C34.2712 71.9295 34.3375 71.9162 34.3873 71.9062L34.6259 72.9602C34.5463 72.9901 34.4353 73.0199 34.2928 73.0497C34.1503 73.0829 33.9696 73.0994 33.7509 73.0994C33.4194 73.0994 33.0946 73.0282 32.7765 72.8857C32.4616 72.7431 32.1998 72.526 31.9909 72.2344C31.7855 71.9427 31.6827 71.5748 31.6827 71.1307V63.5341ZM37.589 68.4062V73H36.4157V62.8182H37.589V66.5568H37.6884C37.8674 66.1624 38.1358 65.8492 38.4938 65.6172C38.8551 65.3819 39.3356 65.2642 39.9355 65.2642C40.4559 65.2642 40.9116 65.3686 41.3027 65.5774C41.6938 65.7829 41.9971 66.0994 42.2125 66.527C42.4313 66.9512 42.5407 67.4915 42.5407 68.1477V73H41.3674V68.2273C41.3674 67.6207 41.2099 67.1518 40.8951 66.8203C40.5835 66.4856 40.151 66.3182 39.5975 66.3182C39.213 66.3182 38.8683 66.3994 38.5634 66.5618C38.2618 66.7242 38.0231 66.9612 37.8475 67.2727C37.6751 67.5843 37.589 67.9621 37.589 68.4062ZM49.4996 69.8778V65.3636H50.6729V73H49.4996V71.7074H49.4201C49.2411 72.0952 48.9627 72.425 48.5849 72.6967C48.207 72.9652 47.7298 73.0994 47.1531 73.0994C46.6758 73.0994 46.2515 72.995 45.8803 72.7862C45.5091 72.5741 45.2174 72.2559 45.0053 71.8317C44.7932 71.4041 44.6871 70.8655 44.6871 70.2159V65.3636H45.8604V70.1364C45.8604 70.6932 46.0162 71.1373 46.3278 71.4688C46.6426 71.8002 47.0437 71.9659 47.5309 71.9659C47.8226 71.9659 48.1192 71.8913 48.4208 71.7422C48.7257 71.593 48.9809 71.3643 49.1864 71.0561C49.3952 70.7479 49.4996 70.3551 49.4996 69.8778ZM52.8219 73V65.3636H53.9554V66.5568H54.0549C54.214 66.1491 54.4708 65.8326 54.8255 65.6072C55.1801 65.3786 55.606 65.2642 56.1032 65.2642C56.6069 65.2642 57.0262 65.3786 57.361 65.6072C57.699 65.8326 57.9625 66.1491 58.1515 66.5568H58.231C58.4266 66.1624 58.7199 65.8492 59.111 65.6172C59.5021 65.3819 59.9711 65.2642 60.5179 65.2642C61.2007 65.2642 61.7592 65.478 62.1934 65.9055C62.6275 66.3298 62.8446 66.991 62.8446 67.8892V73H61.6713V67.8892C61.6713 67.3258 61.5172 66.9231 61.209 66.6811C60.9007 66.4392 60.5378 66.3182 60.1202 66.3182C59.5833 66.3182 59.1673 66.4806 58.8723 66.8054C58.5774 67.1269 58.4299 67.5346 58.4299 68.0284V73H57.2367V67.7699C57.2367 67.3357 57.0958 66.986 56.8141 66.7209C56.5324 66.4524 56.1694 66.3182 55.7253 66.3182C55.4204 66.3182 55.1354 66.3994 54.8702 66.5618C54.6084 66.7242 54.3962 66.9496 54.2338 67.2379C54.0748 67.523 53.9952 67.8527 53.9952 68.2273V73H52.8219ZM65.149 73V62.8182H66.3223V66.5767H66.4217C66.5079 66.4441 66.6272 66.2751 66.7797 66.0696C66.9354 65.8608 67.1575 65.6752 67.4458 65.5128C67.7375 65.3471 68.1319 65.2642 68.6291 65.2642C69.2721 65.2642 69.8388 65.425 70.3294 65.7464C70.8199 66.0679 71.2027 66.5237 71.4778 67.1136C71.7529 67.7036 71.8904 68.3996 71.8904 69.2017C71.8904 70.0104 71.7529 70.7114 71.4778 71.3047C71.2027 71.8946 70.8216 72.352 70.3343 72.6768C69.8471 72.9983 69.2853 73.1591 68.649 73.1591C68.1584 73.1591 67.7657 73.0779 67.4707 72.9155C67.1757 72.7498 66.9487 72.5625 66.7896 72.3537C66.6305 72.1416 66.5079 71.9659 66.4217 71.8267H66.2825V73H65.149ZM66.3024 69.1818C66.3024 69.7585 66.3869 70.2673 66.5559 70.7081C66.725 71.1456 66.9719 71.4886 67.2967 71.7372C67.6215 71.9825 68.0192 72.1051 68.4899 72.1051C68.9804 72.1051 69.3897 71.9759 69.7179 71.7173C70.0493 71.4555 70.2979 71.1042 70.4636 70.6634C70.6326 70.2192 70.7172 69.7254 70.7172 69.1818C70.7172 68.6449 70.6343 68.161 70.4686 67.7301C70.3062 67.2959 70.0592 66.9529 69.7278 66.701C69.3997 66.4458 68.987 66.3182 68.4899 66.3182C68.0126 66.3182 67.6116 66.4392 67.2868 66.6811C66.9619 66.9197 66.7167 67.2545 66.551 67.6854C66.3852 68.1129 66.3024 68.6117 66.3024 69.1818Z" fill="#344054"/>
<rect x="98" y="0.5" width="49" height="49" rx="24.5" fill="#F6FFFC"/>
<rect x="98" y="0.5" width="49" height="49" rx="24.5" stroke="#E7F5F1"/>
<path d="M116 40.3684C113.684 37.0625 112.321 33.0406 112.321 28.6978C112.321 23.0739 116.877 18.5156 122.498 18.5156C128.119 18.5156 132.675 23.0739 132.675 28.6978" stroke="#90D0BF" stroke-width="3" stroke-linecap="round" stroke-linejoin="round"/>
<path d="M116 40.3684C113.684 37.0625 112.321 33.0406 112.321 28.6978C112.321 23.0739 116.878 18.5156 122.498 18.5156C128.119 18.5156 132.675 23.0739 132.675 28.6978" stroke="#B4DFD4" stroke-width="3" stroke-linecap="round" stroke-linejoin="round"/>
<path d="M133.227 38.8528C133.043 38.863 132.863 38.88 132.678 38.88C127.058 38.88 122.501 34.3217 122.501 28.6978" stroke="#B4DFD4" stroke-width="3" stroke-linecap="round" stroke-linejoin="round"/>
<path d="M133.227 38.8531C133.044 38.8632 132.864 38.8802 132.679 38.8802C127.058 38.8802 122.502 34.322 122.502 28.698" stroke="#B4DFD4" stroke-width="3" stroke-linecap="round" stroke-linejoin="round"/>
<path d="M124.616 41.6666C120.292 38.97 117.412 34.1708 117.412 28.6979C117.412 25.8859 119.691 23.6068 122.501 23.6068C125.311 23.6068 127.591 25.8859 127.591 28.6979C127.591 31.5099 129.87 33.789 132.68 33.789C135.49 33.789 137.769 31.5099 137.769 28.6979C137.769 20.2619 130.934 13.4246 122.503 13.4246C114.072 13.4246 107.236 20.2619 107.236 28.6979C107.236 30.5782 107.447 32.4093 107.834 34.1742" stroke="#B4DFD4" stroke-width="3" stroke-linecap="round" stroke-linejoin="round"/>
<path d="M124.616 41.6666C120.292 38.97 117.412 34.1708 117.412 28.6979C117.412 25.8859 119.691 23.6068 122.501 23.6068C125.311 23.6068 127.591 25.8859 127.591 28.6979C127.591 31.5099 129.87 33.789 132.68 33.789C135.49 33.789 137.769 31.5099 137.769 28.6979C137.769 20.2619 130.934 13.4246 122.503 13.4246C114.072 13.4246 107.236 20.2619 107.236 28.6979C107.236 30.5782 107.447 32.4093 107.834 34.1742" stroke="#B4DFD4" stroke-width="3" stroke-linecap="round" stroke-linejoin="round"/>
<path d="M136.71 14.7718C133.239 10.8296 128.165 8.33325 122.5 8.33325C116.836 8.33325 111.761 10.8296 108.291 14.7718" stroke="#B4DFD4" stroke-width="3" stroke-linecap="round" stroke-linejoin="round"/>
<path d="M136.71 14.7718C133.239 10.8296 128.165 8.33325 122.5 8.33325C116.836 8.33325 111.761 10.8296 108.291 14.7718" stroke="#B4DFD4" stroke-width="3" stroke-linecap="round" stroke-linejoin="round"/>
<path d="M90.233 73V62.8182H91.4659V71.9062H96.1989V73H90.233ZM101.151 73.1591C100.415 73.1591 99.7801 72.9967 99.2464 72.6719C98.7161 72.3438 98.3068 71.8864 98.0185 71.2997C97.7334 70.7098 97.5909 70.0237 97.5909 69.2415C97.5909 68.4593 97.7334 67.7699 98.0185 67.1733C98.3068 66.5734 98.7079 66.1061 99.2216 65.7713C99.7386 65.4332 100.342 65.2642 101.031 65.2642C101.429 65.2642 101.822 65.3305 102.21 65.4631C102.597 65.5956 102.95 65.8111 103.268 66.1094C103.587 66.4044 103.84 66.7955 104.029 67.2827C104.218 67.7699 104.312 68.3698 104.312 69.0824V69.5795H98.4261V68.5653H103.119C103.119 68.1345 103.033 67.75 102.861 67.4119C102.692 67.0739 102.45 66.8071 102.135 66.6115C101.823 66.416 101.455 66.3182 101.031 66.3182C100.564 66.3182 100.16 66.4342 99.8182 66.6662C99.4801 66.8949 99.2199 67.1932 99.0376 67.5611C98.8554 67.929 98.7642 68.3234 98.7642 68.7443V69.4205C98.7642 69.9972 98.8636 70.486 99.0625 70.8871C99.2647 71.2848 99.5447 71.5881 99.9027 71.7969C100.261 72.0024 100.677 72.1051 101.151 72.1051C101.459 72.1051 101.737 72.062 101.986 71.9759C102.238 71.8864 102.455 71.7538 102.637 71.5781C102.819 71.3991 102.96 71.1771 103.06 70.9119L104.193 71.2301C104.074 71.6146 103.873 71.9527 103.592 72.2443C103.31 72.5327 102.962 72.758 102.548 72.9205C102.133 73.0795 101.668 73.1591 101.151 73.1591ZM109.498 65.3636V66.358H105.381V65.3636H109.498ZM106.614 73V64.3097C106.614 63.8722 106.717 63.5076 106.923 63.2159C107.128 62.9242 107.395 62.7055 107.723 62.5597C108.051 62.4138 108.397 62.3409 108.762 62.3409C109.05 62.3409 109.286 62.3641 109.468 62.4105C109.65 62.4569 109.786 62.5 109.876 62.5398L109.538 63.554C109.478 63.5341 109.395 63.5092 109.289 63.4794C109.186 63.4496 109.05 63.4347 108.881 63.4347C108.494 63.4347 108.214 63.5324 108.041 63.728C107.872 63.9235 107.788 64.2102 107.788 64.5881V73H106.614ZM114.463 65.3636V66.358H110.506V65.3636H114.463ZM111.659 63.5341H112.833V70.8125C112.833 71.1439 112.881 71.3925 112.977 71.5582C113.076 71.7206 113.202 71.83 113.355 71.8864C113.51 71.9394 113.674 71.9659 113.847 71.9659C113.976 71.9659 114.082 71.9593 114.165 71.946C114.248 71.9295 114.314 71.9162 114.364 71.9062L114.602 72.9602C114.523 72.9901 114.412 73.0199 114.269 73.0497C114.127 73.0829 113.946 73.0994 113.727 73.0994C113.396 73.0994 113.071 73.0282 112.753 72.8857C112.438 72.7431 112.176 72.526 111.968 72.2344C111.762 71.9427 111.659 71.5748 111.659 71.1307V63.5341ZM121.558 62.8182V73H120.325V62.8182H121.558ZM125.044 68.4062V73H123.871V65.3636H125.004V66.5568H125.104C125.283 66.169 125.554 65.8575 125.919 65.6222C126.284 65.3835 126.754 65.2642 127.331 65.2642C127.848 65.2642 128.3 65.3703 128.688 65.5824C129.076 65.7912 129.378 66.1094 129.593 66.5369C129.808 66.9612 129.916 67.4981 129.916 68.1477V73H128.743V68.2273C128.743 67.6274 128.587 67.16 128.276 66.8253C127.964 66.4872 127.536 66.3182 126.993 66.3182C126.618 66.3182 126.284 66.3994 125.989 66.5618C125.697 66.7242 125.467 66.9612 125.298 67.2727C125.129 67.5843 125.044 67.9621 125.044 68.4062ZM134.944 73.1591C134.307 73.1591 133.746 72.9983 133.258 72.6768C132.771 72.352 132.39 71.8946 132.115 71.3047C131.84 70.7114 131.702 70.0104 131.702 69.2017C131.702 68.3996 131.84 67.7036 132.115 67.1136C132.39 66.5237 132.773 66.0679 133.263 65.7464C133.754 65.425 134.321 65.2642 134.964 65.2642C135.461 65.2642 135.854 65.3471 136.142 65.5128C136.434 65.6752 136.656 65.8608 136.808 66.0696C136.964 66.2751 137.085 66.4441 137.171 66.5767H137.27V62.8182H138.444V73H137.31V71.8267H137.171C137.085 71.9659 136.962 72.1416 136.803 72.3537C136.644 72.5625 136.417 72.7498 136.122 72.9155C135.827 73.0779 135.434 73.1591 134.944 73.1591ZM135.103 72.1051C135.573 72.1051 135.971 71.9825 136.296 71.7372C136.621 71.4886 136.868 71.1456 137.037 70.7081C137.206 70.2673 137.29 69.7585 137.29 69.1818C137.29 68.6117 137.207 68.1129 137.042 67.6854C136.876 67.2545 136.631 66.9197 136.306 66.6811C135.981 66.4392 135.58 66.3182 135.103 66.3182C134.606 66.3182 134.191 66.4458 133.86 66.701C133.532 66.9529 133.285 67.2959 133.119 67.7301C132.957 68.161 132.876 68.6449 132.876 69.1818C132.876 69.7254 132.958 70.2192 133.124 70.6634C133.293 71.1042 133.542 71.4555 133.87 71.7173C134.201 71.9759 134.612 72.1051 135.103 72.1051ZM143.957 73.1591C143.221 73.1591 142.587 72.9967 142.053 72.6719C141.523 72.3438 141.113 71.8864 140.825 71.2997C140.54 70.7098 140.398 70.0237 140.398 69.2415C140.398 68.4593 140.54 67.7699 140.825 67.1733C141.113 66.5734 141.515 66.1061 142.028 65.7713C142.545 65.4332 143.148 65.2642 143.838 65.2642C144.236 65.2642 144.628 65.3305 145.016 65.4631C145.404 65.5956 145.757 65.8111 146.075 66.1094C146.393 66.4044 146.647 66.7955 146.836 67.2827C147.025 67.7699 147.119 68.3698 147.119 69.0824V69.5795H141.233V68.5653H145.926C145.926 68.1345 145.84 67.75 145.667 67.4119C145.498 67.0739 145.256 66.8071 144.942 66.6115C144.63 66.416 144.262 66.3182 143.838 66.3182C143.371 66.3182 142.966 66.4342 142.625 66.6662C142.287 66.8949 142.027 67.1932 141.844 67.5611C141.662 67.929 141.571 68.3234 141.571 68.7443V69.4205C141.571 69.9972 141.67 70.486 141.869 70.8871C142.071 71.2848 142.351 71.5881 142.709 71.7969C143.067 72.0024 143.483 72.1051 143.957 72.1051C144.265 72.1051 144.544 72.062 144.792 71.9759C145.044 71.8864 145.261 71.7538 145.444 71.5781C145.626 71.3991 145.767 71.1771 145.866 70.9119L147 71.2301C146.881 71.6146 146.68 71.9527 146.398 72.2443C146.117 72.5327 145.769 72.758 145.354 72.9205C144.94 73.0795 144.474 73.1591 143.957 73.1591ZM149.574 65.3636L151.403 68.4858L153.233 65.3636H154.585L152.119 69.1818L154.585 73H153.233L151.403 70.0369L149.574 73H148.222L150.648 69.1818L148.222 65.3636H149.574Z" fill="#344054"/>
<rect x="188" y="0.5" width="49" height="49" rx="24.5" fill="#F6FFFC"/>
<rect x="188" y="0.5" width="49" height="49" rx="24.5" stroke="#E7F5F1"/>
<path d="M202.178 35.8839C202.208 35.8342 202.238 35.7848 202.269 35.7356C204.526 32.1469 205.833 27.9029 205.833 23.3333C205.833 19.6514 208.818 16.6667 212.5 16.6667C216.182 16.6667 219.167 19.6514 219.167 23.3333C219.167 25.0284 219.051 26.6976 218.828 28.3333M215.299 39.7394C216.318 37.7044 217.154 35.5615 217.785 33.3333M224.183 35.2199C225.258 31.4428 225.833 27.4553 225.833 23.3333C225.833 15.9695 219.864 10 212.5 10C210.071 10 207.794 10.6493 205.833 11.7838M197.5 30.6069C198.568 28.4089 199.167 25.9411 199.167 23.3333C199.167 20.9048 199.816 18.6278 200.95 16.6667M212.5 23.3333C212.5 29.1953 210.818 34.6647 207.912 39.2854" stroke="#90D0BF" stroke-width="3" stroke-linecap="round" stroke-linejoin="round"/>
<path d="M173.233 73V62.8182H176.673C177.469 62.8182 178.122 62.9541 178.632 63.2259C179.143 63.4943 179.52 63.8639 179.766 64.3345C180.011 64.8052 180.134 65.3404 180.134 65.9403C180.134 66.5402 180.011 67.0722 179.766 67.5362C179.52 68.0002 179.144 68.3648 178.637 68.63C178.13 68.8918 177.482 69.0227 176.693 69.0227H173.909V67.9091H176.653C177.197 67.9091 177.634 67.8295 177.966 67.6705C178.301 67.5114 178.543 67.286 178.692 66.9943C178.844 66.6993 178.92 66.348 178.92 65.9403C178.92 65.5327 178.844 65.1764 178.692 64.8714C178.539 64.5665 178.296 64.3312 177.961 64.1655C177.626 63.9964 177.184 63.9119 176.634 63.9119H174.466V73H173.233ZM178.026 68.4261L180.531 73H179.099L176.634 68.4261H178.026ZM182.029 73V65.3636H183.202V73H182.029ZM182.626 64.0909C182.397 64.0909 182.2 64.013 182.034 63.8572C181.872 63.7015 181.79 63.5142 181.79 63.2955C181.79 63.0767 181.872 62.8894 182.034 62.7337C182.2 62.5779 182.397 62.5 182.626 62.5C182.854 62.5 183.05 62.5779 183.212 62.7337C183.378 62.8894 183.461 63.0767 183.461 63.2955C183.461 63.5142 183.378 63.7015 183.212 63.8572C183.05 64.013 182.854 64.0909 182.626 64.0909ZM188.434 76.0227C187.867 76.0227 187.38 75.9498 186.972 75.804C186.564 75.6615 186.225 75.4725 185.953 75.2372C185.684 75.0052 185.471 74.7566 185.311 74.4915L186.246 73.8352C186.352 73.9744 186.486 74.1335 186.649 74.3125C186.811 74.4948 187.033 74.6522 187.315 74.7848C187.6 74.9207 187.973 74.9886 188.434 74.9886C189.05 74.9886 189.559 74.8395 189.96 74.5412C190.361 74.2429 190.561 73.7756 190.561 73.1392V71.5881H190.462C190.376 71.7273 190.253 71.8996 190.094 72.1051C189.938 72.3073 189.713 72.4879 189.418 72.647C189.126 72.8028 188.732 72.8807 188.235 72.8807C187.618 72.8807 187.065 72.7348 186.574 72.4432C186.087 72.1515 185.701 71.7273 185.416 71.1705C185.134 70.6136 184.993 69.9375 184.993 69.142C184.993 68.3598 185.131 67.6787 185.406 67.0987C185.681 66.5154 186.064 66.0646 186.554 65.7464C187.045 65.425 187.612 65.2642 188.255 65.2642C188.752 65.2642 189.146 65.3471 189.438 65.5128C189.733 65.6752 189.958 65.8608 190.114 66.0696C190.273 66.2751 190.396 66.4441 190.482 66.5767H190.601V65.3636H191.735V73.2188C191.735 73.875 191.586 74.4086 191.287 74.8196C190.992 75.2339 190.595 75.5372 190.094 75.7294C189.597 75.925 189.043 76.0227 188.434 76.0227ZM188.394 71.8267C188.864 71.8267 189.262 71.719 189.587 71.5036C189.912 71.2881 190.159 70.9782 190.328 70.5739C190.497 70.1695 190.581 69.6856 190.581 69.1222C190.581 68.572 190.498 68.0864 190.333 67.6655C190.167 67.2446 189.922 66.9148 189.597 66.6761C189.272 66.4375 188.871 66.3182 188.394 66.3182C187.897 66.3182 187.482 66.4441 187.151 66.696C186.823 66.9479 186.576 67.286 186.41 67.7102C186.248 68.1345 186.167 68.6051 186.167 69.1222C186.167 69.6525 186.249 70.1214 186.415 70.5291C186.584 70.9335 186.833 71.2517 187.161 71.4837C187.492 71.7124 187.903 71.8267 188.394 71.8267ZM195.056 68.4062V73H193.882V62.8182H195.056V66.5568H195.155C195.334 66.1624 195.603 65.8492 195.961 65.6172C196.322 65.3819 196.802 65.2642 197.402 65.2642C197.923 65.2642 198.378 65.3686 198.77 65.5774C199.161 65.7829 199.464 66.0994 199.679 66.527C199.898 66.9512 200.007 67.4915 200.007 68.1477V73H198.834V68.2273C198.834 67.6207 198.677 67.1518 198.362 66.8203C198.05 66.4856 197.618 66.3182 197.064 66.3182C196.68 66.3182 196.335 66.3994 196.03 66.5618C195.729 66.7242 195.49 66.9612 195.314 67.2727C195.142 67.5843 195.056 67.9621 195.056 68.4062ZM205.475 65.3636V66.358H201.518V65.3636H205.475ZM202.671 63.5341H203.844V70.8125C203.844 71.1439 203.892 71.3925 203.988 71.5582C204.088 71.7206 204.214 71.83 204.366 71.8864C204.522 71.9394 204.686 71.9659 204.858 71.9659C204.988 71.9659 205.094 71.9593 205.177 71.946C205.26 71.9295 205.326 71.9162 205.376 71.9062L205.614 72.9602C205.535 72.9901 205.424 73.0199 205.281 73.0497C205.139 73.0829 204.958 73.0994 204.739 73.0994C204.408 73.0994 204.083 73.0282 203.765 72.8857C203.45 72.7431 203.188 72.526 202.979 72.2344C202.774 71.9427 202.671 71.5748 202.671 71.1307V63.5341ZM214.498 65.3636V66.358H210.541V65.3636H214.498ZM211.694 63.5341H212.868V70.8125C212.868 71.1439 212.916 71.3925 213.012 71.5582C213.111 71.7206 213.237 71.83 213.39 71.8864C213.546 71.9394 213.71 71.9659 213.882 71.9659C214.011 71.9659 214.117 71.9593 214.2 71.946C214.283 71.9295 214.349 71.9162 214.399 71.9062L214.638 72.9602C214.558 72.9901 214.447 73.0199 214.305 73.0497C214.162 73.0829 213.981 73.0994 213.763 73.0994C213.431 73.0994 213.106 73.0282 212.788 72.8857C212.473 72.7431 212.211 72.526 212.003 72.2344C211.797 71.9427 211.694 71.5748 211.694 71.1307V63.5341ZM217.601 68.4062V73H216.427V62.8182H217.601V66.5568H217.7C217.879 66.1624 218.148 65.8492 218.506 65.6172C218.867 65.3819 219.347 65.2642 219.947 65.2642C220.468 65.2642 220.923 65.3686 221.314 65.5774C221.706 65.7829 222.009 66.0994 222.224 66.527C222.443 66.9512 222.552 67.4915 222.552 68.1477V73H221.379V68.2273C221.379 67.6207 221.222 67.1518 220.907 66.8203C220.595 66.4856 220.163 66.3182 219.609 66.3182C219.225 66.3182 218.88 66.3994 218.575 66.5618C218.273 66.7242 218.035 66.9612 217.859 67.2727C217.687 67.5843 217.601 67.9621 217.601 68.4062ZM229.511 69.8778V65.3636H230.685V73H229.511V71.7074H229.432C229.253 72.0952 228.974 72.425 228.597 72.6967C228.219 72.9652 227.741 73.0994 227.165 73.0994C226.688 73.0994 226.263 72.995 225.892 72.7862C225.521 72.5741 225.229 72.2559 225.017 71.8317C224.805 71.4041 224.699 70.8655 224.699 70.2159V65.3636H225.872V70.1364C225.872 70.6932 226.028 71.1373 226.339 71.4688C226.654 71.8002 227.055 71.9659 227.543 71.9659C227.834 71.9659 228.131 71.8913 228.433 71.7422C228.737 71.593 228.993 71.3643 229.198 71.0561C229.407 70.7479 229.511 70.3551 229.511 69.8778ZM232.834 73V65.3636H233.967V66.5568H234.067C234.226 66.1491 234.483 65.8326 234.837 65.6072C235.192 65.3786 235.618 65.2642 236.115 65.2642C236.619 65.2642 237.038 65.3786 237.373 65.6072C237.711 65.8326 237.974 66.1491 238.163 66.5568H238.243C238.438 66.1624 238.732 65.8492 239.123 65.6172C239.514 65.3819 239.983 65.2642 240.53 65.2642C241.212 65.2642 241.771 65.478 242.205 65.9055C242.639 66.3298 242.856 66.991 242.856 67.8892V73H241.683V67.8892C241.683 67.3258 241.529 66.9231 241.221 66.6811C240.912 66.4392 240.55 66.3182 240.132 66.3182C239.595 66.3182 239.179 66.4806 238.884 66.8054C238.589 67.1269 238.442 67.5346 238.442 68.0284V73H237.248V67.7699C237.248 67.3357 237.108 66.986 236.826 66.7209C236.544 66.4524 236.181 66.3182 235.737 66.3182C235.432 66.3182 235.147 66.3994 234.882 66.5618C234.62 66.7242 234.408 66.9496 234.246 67.2379C234.086 67.523 234.007 67.8527 234.007 68.2273V73H232.834ZM245.161 73V62.8182H246.334V66.5767H246.433C246.52 66.4441 246.639 66.2751 246.791 66.0696C246.947 65.8608 247.169 65.6752 247.458 65.5128C247.749 65.3471 248.144 65.2642 248.641 65.2642C249.284 65.2642 249.851 65.425 250.341 65.7464C250.832 66.0679 251.214 66.5237 251.49 67.1136C251.765 67.7036 251.902 68.3996 251.902 69.2017C251.902 70.0104 251.765 70.7114 251.49 71.3047C251.214 71.8946 250.833 72.352 250.346 72.6768C249.859 72.9983 249.297 73.1591 248.661 73.1591C248.17 73.1591 247.777 73.0779 247.482 72.9155C247.187 72.7498 246.96 72.5625 246.801 72.3537C246.642 72.1416 246.52 71.9659 246.433 71.8267H246.294V73H245.161ZM246.314 69.1818C246.314 69.7585 246.399 70.2673 246.568 70.7081C246.737 71.1456 246.984 71.4886 247.308 71.7372C247.633 71.9825 248.031 72.1051 248.502 72.1051C248.992 72.1051 249.401 71.9759 249.73 71.7173C250.061 71.4555 250.31 71.1042 250.475 70.6634C250.644 70.2192 250.729 69.7254 250.729 69.1818C250.729 68.6449 250.646 68.161 250.48 67.7301C250.318 67.2959 250.071 66.9529 249.74 66.701C249.411 66.4458 248.999 66.3182 248.502 66.3182C248.024 66.3182 247.623 66.4392 247.298 66.6811C246.974 66.9197 246.728 67.2545 246.563 67.6854C246.397 68.1129 246.314 68.6117 246.314 69.1818Z" fill="#344054"/>
<rect x="282" y="0.5" width="49" height="49" rx="24.5" fill="#F6FFFC"/>
<rect x="282" y="0.5" width="49" height="49" rx="24.5" stroke="#E7F5F1"/>
<path d="M300 40.3684C297.684 37.0625 296.321 33.0406 296.321 28.6978C296.321 23.0739 300.877 18.5156 306.498 18.5156C312.119 18.5156 316.675 23.0739 316.675 28.6978" stroke="#90D0BF" stroke-width="3" stroke-linecap="round" stroke-linejoin="round"/>
<path d="M300 40.3684C297.684 37.0625 296.321 33.0406 296.321 28.6978C296.321 23.0739 300.878 18.5156 306.498 18.5156C312.119 18.5156 316.675 23.0739 316.675 28.6978" stroke="#B4DFD4" stroke-width="3" stroke-linecap="round" stroke-linejoin="round"/>
<path d="M317.227 38.8528C317.043 38.863 316.863 38.88 316.678 38.88C311.058 38.88 306.501 34.3217 306.501 28.6978" stroke="#B4DFD4" stroke-width="3" stroke-linecap="round" stroke-linejoin="round"/>
<path d="M317.227 38.8531C317.044 38.8632 316.864 38.8802 316.679 38.8802C311.058 38.8802 306.502 34.322 306.502 28.698" stroke="#B4DFD4" stroke-width="3" stroke-linecap="round" stroke-linejoin="round"/>
<path d="M308.616 41.6666C304.292 38.97 301.412 34.1708 301.412 28.6979C301.412 25.8859 303.691 23.6068 306.501 23.6068C309.311 23.6068 311.591 25.8859 311.591 28.6979C311.591 31.5099 313.87 33.789 316.68 33.789C319.49 33.789 321.769 31.5099 321.769 28.6979C321.769 20.2619 314.934 13.4246 306.503 13.4246C298.072 13.4246 291.236 20.2619 291.236 28.6979C291.236 30.5782 291.447 32.4093 291.834 34.1742" stroke="#B4DFD4" stroke-width="3" stroke-linecap="round" stroke-linejoin="round"/>
<path d="M308.616 41.6666C304.292 38.97 301.412 34.1708 301.412 28.6979C301.412 25.8859 303.691 23.6068 306.501 23.6068C309.311 23.6068 311.591 25.8859 311.591 28.6979C311.591 31.5099 313.87 33.789 316.68 33.789C319.49 33.789 321.769 31.5099 321.769 28.6979C321.769 20.2619 314.934 13.4246 306.503 13.4246C298.072 13.4246 291.236 20.2619 291.236 28.6979C291.236 30.5782 291.447 32.4093 291.834 34.1742" stroke="#B4DFD4" stroke-width="3" stroke-linecap="round" stroke-linejoin="round"/>
<path d="M320.71 14.7718C317.239 10.8296 312.165 8.33325 306.5 8.33325C300.836 8.33325 295.761 10.8296 292.291 14.7718" stroke="#B4DFD4" stroke-width="3" stroke-linecap="round" stroke-linejoin="round"/>
<path d="M320.71 14.7718C317.239 10.8296 312.165 8.33325 306.5 8.33325C300.836 8.33325 295.761 10.8296 292.291 14.7718" stroke="#B4DFD4" stroke-width="3" stroke-linecap="round" stroke-linejoin="round"/>
<path d="M270.233 73V62.8182H273.673C274.469 62.8182 275.122 62.9541 275.632 63.2259C276.143 63.4943 276.52 63.8639 276.766 64.3345C277.011 64.8052 277.134 65.3404 277.134 65.9403C277.134 66.5402 277.011 67.0722 276.766 67.5362C276.52 68.0002 276.144 68.3648 275.637 68.63C275.13 68.8918 274.482 69.0227 273.693 69.0227H270.909V67.9091H273.653C274.197 67.9091 274.634 67.8295 274.966 67.6705C275.301 67.5114 275.543 67.286 275.692 66.9943C275.844 66.6993 275.92 66.348 275.92 65.9403C275.92 65.5327 275.844 65.1764 275.692 64.8714C275.539 64.5665 275.296 64.3312 274.961 64.1655C274.626 63.9964 274.184 63.9119 273.634 63.9119H271.466V73H270.233ZM275.026 68.4261L277.531 73H276.099L273.634 68.4261H275.026ZM279.029 73V65.3636H280.202V73H279.029ZM279.626 64.0909C279.397 64.0909 279.2 64.013 279.034 63.8572C278.872 63.7015 278.79 63.5142 278.79 63.2955C278.79 63.0767 278.872 62.8894 279.034 62.7337C279.2 62.5779 279.397 62.5 279.626 62.5C279.854 62.5 280.05 62.5779 280.212 62.7337C280.378 62.8894 280.461 63.0767 280.461 63.2955C280.461 63.5142 280.378 63.7015 280.212 63.8572C280.05 64.013 279.854 64.0909 279.626 64.0909ZM285.434 76.0227C284.867 76.0227 284.38 75.9498 283.972 75.804C283.564 75.6615 283.225 75.4725 282.953 75.2372C282.684 75.0052 282.471 74.7566 282.311 74.4915L283.246 73.8352C283.352 73.9744 283.486 74.1335 283.649 74.3125C283.811 74.4948 284.033 74.6522 284.315 74.7848C284.6 74.9207 284.973 74.9886 285.434 74.9886C286.05 74.9886 286.559 74.8395 286.96 74.5412C287.361 74.2429 287.561 73.7756 287.561 73.1392V71.5881H287.462C287.376 71.7273 287.253 71.8996 287.094 72.1051C286.938 72.3073 286.713 72.4879 286.418 72.647C286.126 72.8028 285.732 72.8807 285.235 72.8807C284.618 72.8807 284.065 72.7348 283.574 72.4432C283.087 72.1515 282.701 71.7273 282.416 71.1705C282.134 70.6136 281.993 69.9375 281.993 69.142C281.993 68.3598 282.131 67.6787 282.406 67.0987C282.681 66.5154 283.064 66.0646 283.554 65.7464C284.045 65.425 284.612 65.2642 285.255 65.2642C285.752 65.2642 286.146 65.3471 286.438 65.5128C286.733 65.6752 286.958 65.8608 287.114 66.0696C287.273 66.2751 287.396 66.4441 287.482 66.5767H287.601V65.3636H288.735V73.2188C288.735 73.875 288.586 74.4086 288.287 74.8196C287.992 75.2339 287.595 75.5372 287.094 75.7294C286.597 75.925 286.043 76.0227 285.434 76.0227ZM285.394 71.8267C285.864 71.8267 286.262 71.719 286.587 71.5036C286.912 71.2881 287.159 70.9782 287.328 70.5739C287.497 70.1695 287.581 69.6856 287.581 69.1222C287.581 68.572 287.498 68.0864 287.333 67.6655C287.167 67.2446 286.922 66.9148 286.597 66.6761C286.272 66.4375 285.871 66.3182 285.394 66.3182C284.897 66.3182 284.482 66.4441 284.151 66.696C283.823 66.9479 283.576 67.286 283.41 67.7102C283.248 68.1345 283.167 68.6051 283.167 69.1222C283.167 69.6525 283.249 70.1214 283.415 70.5291C283.584 70.9335 283.833 71.2517 284.161 71.4837C284.492 71.7124 284.903 71.8267 285.394 71.8267ZM292.056 68.4062V73H290.882V62.8182H292.056V66.5568H292.155C292.334 66.1624 292.603 65.8492 292.961 65.6172C293.322 65.3819 293.802 65.2642 294.402 65.2642C294.923 65.2642 295.378 65.3686 295.77 65.5774C296.161 65.7829 296.464 66.0994 296.679 66.527C296.898 66.9512 297.007 67.4915 297.007 68.1477V73H295.834V68.2273C295.834 67.6207 295.677 67.1518 295.362 66.8203C295.05 66.4856 294.618 66.3182 294.064 66.3182C293.68 66.3182 293.335 66.3994 293.03 66.5618C292.729 66.7242 292.49 66.9612 292.314 67.2727C292.142 67.5843 292.056 67.9621 292.056 68.4062ZM302.475 65.3636V66.358H298.518V65.3636H302.475ZM299.671 63.5341H300.844V70.8125C300.844 71.1439 300.892 71.3925 300.988 71.5582C301.088 71.7206 301.214 71.83 301.366 71.8864C301.522 71.9394 301.686 71.9659 301.858 71.9659C301.988 71.9659 302.094 71.9593 302.177 71.946C302.26 71.9295 302.326 71.9162 302.376 71.9062L302.614 72.9602C302.535 72.9901 302.424 73.0199 302.281 73.0497C302.139 73.0829 301.958 73.0994 301.739 73.0994C301.408 73.0994 301.083 73.0282 300.765 72.8857C300.45 72.7431 300.188 72.526 299.979 72.2344C299.774 71.9427 299.671 71.5748 299.671 71.1307V63.5341ZM309.569 62.8182V73H308.336V62.8182H309.569ZM313.056 68.4062V73H311.882V65.3636H313.016V66.5568H313.115C313.294 66.169 313.566 65.8575 313.931 65.6222C314.295 65.3835 314.766 65.2642 315.343 65.2642C315.86 65.2642 316.312 65.3703 316.7 65.5824C317.088 65.7912 317.389 66.1094 317.605 66.5369C317.82 66.9612 317.928 67.4981 317.928 68.1477V73H316.755V68.2273C316.755 67.6274 316.599 67.16 316.287 66.8253C315.976 66.4872 315.548 66.3182 315.005 66.3182C314.63 66.3182 314.295 66.3994 314 66.5618C313.709 66.7242 313.478 66.9612 313.309 67.2727C313.14 67.5843 313.056 67.9621 313.056 68.4062ZM322.955 73.1591C322.319 73.1591 321.757 72.9983 321.27 72.6768C320.783 72.352 320.402 71.8946 320.127 71.3047C319.852 70.7114 319.714 70.0104 319.714 69.2017C319.714 68.3996 319.852 67.7036 320.127 67.1136C320.402 66.5237 320.785 66.0679 321.275 65.7464C321.766 65.425 322.332 65.2642 322.975 65.2642C323.472 65.2642 323.865 65.3471 324.154 65.5128C324.445 65.6752 324.667 65.8608 324.82 66.0696C324.976 66.2751 325.097 66.4441 325.183 66.5767H325.282V62.8182H326.455V73H325.322V71.8267H325.183C325.097 71.9659 324.974 72.1416 324.815 72.3537C324.656 72.5625 324.429 72.7498 324.134 72.9155C323.839 73.0779 323.446 73.1591 322.955 73.1591ZM323.115 72.1051C323.585 72.1051 323.983 71.9825 324.308 71.7372C324.633 71.4886 324.879 71.1456 325.048 70.7081C325.218 70.2673 325.302 69.7585 325.302 69.1818C325.302 68.6117 325.219 68.1129 325.053 67.6854C324.888 67.2545 324.642 66.9197 324.318 66.6811C323.993 66.4392 323.592 66.3182 323.115 66.3182C322.617 66.3182 322.203 66.4458 321.872 66.701C321.544 66.9529 321.297 67.2959 321.131 67.7301C320.968 68.161 320.887 68.6449 320.887 69.1818C320.887 69.7254 320.97 70.2192 321.136 70.6634C321.305 71.1042 321.553 71.4555 321.882 71.7173C322.213 71.9759 322.624 72.1051 323.115 72.1051ZM331.969 73.1591C331.233 73.1591 330.598 72.9967 330.065 72.6719C329.535 72.3438 329.125 71.8864 328.837 71.2997C328.552 70.7098 328.409 70.0237 328.409 69.2415C328.409 68.4593 328.552 67.7699 328.837 67.1733C329.125 66.5734 329.526 66.1061 330.04 65.7713C330.557 65.4332 331.16 65.2642 331.85 65.2642C332.247 65.2642 332.64 65.3305 333.028 65.4631C333.416 65.5956 333.769 65.8111 334.087 66.1094C334.405 66.4044 334.659 66.7955 334.847 67.2827C335.036 67.7699 335.131 68.3698 335.131 69.0824V69.5795H329.244V68.5653H333.938C333.938 68.1345 333.852 67.75 333.679 67.4119C333.51 67.0739 333.268 66.8071 332.953 66.6115C332.642 66.416 332.274 66.3182 331.85 66.3182C331.382 66.3182 330.978 66.4342 330.637 66.6662C330.298 66.8949 330.038 67.1932 329.856 67.5611C329.674 67.929 329.583 68.3234 329.583 68.7443V69.4205C329.583 69.9972 329.682 70.486 329.881 70.8871C330.083 71.2848 330.363 71.5881 330.721 71.7969C331.079 72.0024 331.495 72.1051 331.969 72.1051C332.277 72.1051 332.556 72.062 332.804 71.9759C333.056 71.8864 333.273 71.7538 333.455 71.5781C333.638 71.3991 333.779 71.1771 333.878 70.9119L335.012 71.2301C334.892 71.6146 334.692 71.9527 334.41 72.2443C334.128 72.5327 333.78 72.758 333.366 72.9205C332.952 73.0795 332.486 73.1591 331.969 73.1591ZM337.586 65.3636L339.415 68.4858L341.245 65.3636H342.597L340.131 69.1818L342.597 73H341.245L339.415 70.0369L337.586 73H336.233L338.659 69.1818L336.233 65.3636H337.586Z" fill="#344054"/>
</svg>
